<svg width="137" height="127" viewBox="0 0 137 127" fill="none" xmlns="http://www.w3.org/2000/svg">
  <path
    d="M32.9685 83.748H22.333C14.4893 83.748 7.97501 89.6819 7.0444 97.5039L5.58202 110.046C5.44908 111.664 6.51263 113.283 7.97501 113.552C14.0904 114.901 20.7376 115.575 27.6507 115.575C30.1767 115.575 32.7026 115.44 34.9626 115.305V115.171L36.8239 99.7965C37.4886 94.9415 39.3498 90.4911 42.1416 86.9847C39.6157 84.9618 36.425 83.748 32.9685 83.748Z"
    fill="#A36633" />
  <path
    d="M130.284 97.504C129.353 89.682 122.839 83.748 114.995 83.748H104.36C101.036 83.748 97.8453 84.8269 95.3193 86.9847C98.1112 90.626 99.9724 94.9416 100.504 99.7967L102.232 115.306V115.441C104.625 115.576 107.018 115.71 109.544 115.71C116.457 115.71 122.972 115.036 129.22 113.687C130.815 113.283 131.879 111.799 131.613 110.181L130.284 97.504Z"
    fill="#A36633" />
  <path d="M27.6514 78.4887C35.5811 78.4887 42.0093 71.9678 42.0093 63.9238C42.0093 55.8798 35.5811 49.3589 27.6514 49.3589C19.7217 49.3589 13.2935 55.8798 13.2935 63.9238C13.2935 71.9678 19.7217 78.4887 27.6514 78.4887Z" fill="#A36633" />
  <path d="M109.81 78.4887C117.74 78.4887 124.168 71.9678 124.168 63.9238C124.168 55.8798 117.74 49.3589 109.81 49.3589C101.88 49.3589 95.4521 55.8798 95.4521 63.9238C95.4521 71.9678 101.88 78.4887 109.81 78.4887Z" fill="#A36633" />
  <path
    d="M75.2444 83.8835H62.0829C52.6439 83.8835 44.6673 91.0312 43.4708 100.606L41.6096 116.115C41.3437 118.138 42.6731 120.026 44.5343 120.431C52.1121 122.049 60.2217 122.993 68.5972 122.993C76.9726 122.993 85.0822 122.184 92.66 120.431C94.6542 120.026 95.8507 118.138 95.7177 116.115L93.8565 100.606C92.793 91.166 84.8163 83.8835 75.2444 83.8835Z"
    fill="#A36633" />
  <path d="M68.7309 77.9496C78.4961 77.9496 86.4124 69.9191 86.4124 60.013C86.4124 50.1069 78.4961 42.0764 68.7309 42.0764C58.9656 42.0764 51.0493 50.1069 51.0493 60.013C51.0493 69.9191 58.9656 77.9496 68.7309 77.9496Z" fill="#A36633" />
  <path
    d="M52.2457 32.3666C58.2282 32.3666 63.413 28.9951 66.2049 24.0053H73.3838C73.7827 24.0053 74.0485 23.8704 74.3144 23.6007L78.9675 18.8805L83.0887 23.0612C83.6205 23.6007 84.4182 23.6007 84.9499 23.0612L88.9383 18.8805L93.0595 23.0612C93.5913 23.6007 94.389 23.6007 94.9207 23.0612L100.903 17.1273C101.435 16.5879 101.435 15.7787 100.903 15.2393L94.389 8.76597C94.1231 8.49624 93.8572 8.36138 93.4584 8.36138H66.2049C63.413 3.37152 58.2282 0 52.2457 0C43.4715 0 36.2925 7.28249 36.2925 16.1833C36.2925 25.219 43.4715 32.3666 52.2457 32.3666ZM46.795 11.598C49.321 11.598 51.3151 13.621 51.3151 16.1833C51.3151 18.7457 49.321 20.7686 46.795 20.7686C44.2691 20.7686 42.275 18.7457 42.275 16.1833C42.275 13.621 44.2691 11.598 46.795 11.598Z"
    fill="#A36633" />
</svg>