<svg width="105" height="127" viewBox="0 0 105 127" fill="none" xmlns="http://www.w3.org/2000/svg">
  <path
    d="M105.117 74.0611L99.1035 37.9664C98.8476 36.0948 97.4402 34.6243 95.777 34.0895C94.3697 33.6885 92.9623 33.9558 91.9388 34.758C90.7873 35.5601 90.1476 36.8969 90.0197 38.3674L88.3564 59.4895C89.252 59.8906 90.2755 60.4253 91.0432 61.2274C93.8579 64.1685 94.2417 68.8474 91.6829 72.1895L81.7035 85.4243C80.9358 86.4937 79.4005 86.6274 78.377 85.8253C77.3535 85.0232 77.0976 83.419 77.9932 82.3495L87.9726 69.1148C88.8682 67.778 88.8682 65.9064 87.7167 64.8369C87.077 64.1685 86.3094 63.9011 85.5417 63.9011C84.902 63.9011 84.2623 64.1685 83.6226 64.5695L69.1652 75.6653C66.3505 77.8043 64.4314 81.1464 64.0476 84.7558L61.4888 105.477H88.4844L101.278 89.4348C104.605 85.1569 106.012 79.5422 105.117 74.0611Z"
    fill="#A36633" />
  <path d="M88.8686 110.423H60.2097C58.6744 110.423 57.395 111.76 57.395 113.364V124.059C57.395 125.663 58.6744 127 60.2097 127H88.8686C90.4038 127 91.6833 125.663 91.6833 124.059V113.364C91.5553 111.76 90.4038 110.423 88.8686 110.423Z"
    fill="#A36633" />
  <path
    d="M44.9848 105.477L42.426 84.7558C41.9142 81.1464 40.123 77.8043 37.3083 75.6653L22.851 64.5695C21.5716 63.6337 19.9083 63.7674 18.7569 64.8369C17.6054 66.0401 17.4775 67.9116 18.501 69.1148L28.4804 82.3495C29.248 83.419 29.1201 85.0232 28.0966 85.8253C27.073 86.6274 25.5377 86.4937 24.7701 85.4243L14.7907 72.1895C12.3598 68.8474 12.6157 64.1685 15.4304 61.2274C16.198 60.4253 17.0936 59.7569 18.1172 59.4895L16.5819 38.3674C16.4539 36.8969 15.8142 35.6937 14.6627 34.758C13.5113 33.9558 12.1039 33.6885 10.8245 34.0895C9.03334 34.6243 7.75392 36.0948 7.49804 37.9664L1.48481 74.0611C0.589217 79.5422 1.99657 85.1569 5.45098 89.4348L18.2451 105.477H44.9848Z"
    fill="#A36633" />
  <path d="M46.1361 110.423H17.4773C15.942 110.423 14.6626 111.76 14.6626 113.364V124.059C14.6626 125.663 15.942 127 17.4773 127H46.1361C47.6714 127 48.9508 125.663 48.9508 124.059V113.364C48.9508 111.76 47.6714 110.423 46.1361 110.423Z"
    fill="#A36633" />
  <path
    d="M64.9435 58.1525C64.9435 52.6714 60.7215 48.2599 55.4759 48.2599H50.87C48.8229 48.2599 47.0318 46.522 47.0318 44.2493C47.0318 41.9767 48.695 40.2388 50.87 40.2388H55.4759C57.5229 40.2388 59.3141 41.9767 59.3141 44.2493H64.9435C64.9435 39.0357 60.9773 34.7578 55.9876 34.4904V29.4104H50.3582V34.4904C45.3685 34.7578 41.4023 39.0357 41.4023 44.2493C41.4023 49.7304 45.6244 54.142 50.87 54.142H55.4759C57.5229 54.142 59.3141 55.8799 59.3141 58.1525C59.3141 60.4251 57.6509 62.163 55.4759 62.163H50.87C48.8229 62.163 47.0318 60.4251 47.0318 58.1525H41.4023C41.4023 63.3662 45.3685 67.6441 50.3582 67.9114V72.9914H55.9876V67.9114C60.9773 67.6441 64.9435 63.3662 64.9435 58.1525Z"
    fill="#A36633" />
  <path d="M53.1726 18.1811C54.7079 18.1811 55.9873 16.8442 55.9873 15.24V2.94105C55.9873 1.33684 54.7079 0 53.1726 0C51.6373 0 50.3579 1.33684 50.3579 2.94105V15.24C50.3579 16.8442 51.6373 18.1811 53.1726 18.1811Z" fill="#A36633" />
  <path
    d="M67.5021 21.1221C67.8859 21.2557 68.2698 21.3894 68.5256 21.3894C69.6771 21.3894 70.7007 20.721 71.0845 19.5178L75.5624 8.15468C76.2021 6.68416 75.4345 4.94626 74.0271 4.27784C72.6198 3.60942 70.9565 4.41152 70.3168 5.88205L65.9668 17.3789C65.3271 18.8494 66.0948 20.5873 67.5021 21.1221Z"
    fill="#A36633" />
  <path
    d="M81.5757 30.4801C82.3433 30.4801 82.983 30.2127 83.6228 29.6779L91.9389 20.9885C93.0904 19.7853 93.0904 18.0474 91.9389 16.8443C90.7875 15.6411 89.1242 15.6411 87.9727 16.8443L79.6566 25.5337C78.5051 26.7369 78.5051 28.4748 79.6566 29.6779C80.1683 30.2127 80.808 30.4801 81.5757 30.4801Z"
    fill="#A36633" />
  <path
    d="M35.2607 19.5178C35.6445 20.5873 36.796 21.3894 37.8195 21.3894C38.2033 21.3894 38.5872 21.2557 38.843 21.1221C40.2504 20.4536 41.018 18.8494 40.3783 17.2452L35.9004 5.88205C35.2607 4.41152 33.5975 3.60942 32.1901 4.27784C30.7828 4.94626 30.0151 6.55047 30.6548 8.15468L35.2607 19.5178Z"
    fill="#A36633" />
  <path
    d="M22.7227 29.6778C23.2345 30.2126 24.0022 30.4799 24.7698 30.4799C25.5375 30.4799 26.1772 30.2126 26.8169 29.6778C27.9683 28.4747 27.9683 26.7368 26.8169 25.5336L18.3727 16.7105C17.2213 15.5073 15.558 15.5073 14.4066 16.7105C13.2551 17.9136 13.2551 19.6515 14.4066 20.8547L22.7227 29.6778Z"
    fill="#A36633" />
</svg>