<svg width="1440" height="290" viewBox="130 75 1440 290" fill="none" xmlns="http://www.w3.org/2000/svg">
  <g opacity=".9">
    <path opacity=".05" fill-rule="evenodd" clip-rule="evenodd" d="M819.725 478.768c-10.106 75.379-303.836 38.154-534.66-66.992C54.24 306.631-17.709 145.583 117.629 112.025c135.339-33.558 712.202 291.364 702.096 366.743z" fill="#E9B58F" />
    <path opacity=".03" fill-rule="evenodd" clip-rule="evenodd" d="M1550.73 340.531c8.88 62.812-206.41 103.781-391.71 75.19-185.302-28.592-270.31-140.246-181.887-199.74 88.427-59.494 564.727 61.739 573.597 124.55z" fill="#1C9FA8" />
    <g opacity=".2">
      <rect width="351.793" height="342.838" rx="3.869" transform="matrix(.93327 -.35353 .32836 .94277 655 174.37)" fill="#F2F2F2" />
      <rect width="73.661" height="80.415" rx="3.869" transform="matrix(.93329 -.35348 .32841 .94274 908.144 122.739)" fill="#fff" />
      <path fill-rule="evenodd" clip-rule="evenodd" d="M957.847 153.722c8.528-3.144 13.01-12.49 10.009-20.875-3-8.386-12.346-12.635-20.874-9.492-8.529 3.143-13.01 12.489-10.01 20.875 3 8.385 12.346 12.635 20.875 9.492z" fill="#DDE3E9" />
      <rect width="51.12" height="5.978" rx="1.693" transform="matrix(.93688 -.34297 .33816 .939 935.464 166.498)" fill="#DDE3E9" />
      <rect width="34.789" height="5.991" rx="1.693" transform="matrix(.93671 -.34348 .33768 .93918 946.598 173.265)" fill="#DDE3E9" />
      <path d="M656.299 172.05a3.905 3.905 0 012.321-4.969L972.626 51.335c2-.738 4.202.292 4.92 2.3l7.289 20.405-321.247 118.415-7.289-20.405z" fill="#C5CFD6" />
      <path fill-rule="evenodd" clip-rule="evenodd"
        d="M673.676 179.3c2.127-.78 3.239-3.116 2.484-5.218-.756-2.102-3.092-3.174-5.219-2.394-2.127.78-3.239 3.117-2.483 5.219.755 2.102 3.091 3.174 5.218 2.393zM685.155 175.123c2.127-.781 3.238-3.117 2.483-5.219-.755-2.102-3.092-3.174-5.219-2.394-2.126.78-3.238 3.117-2.483 5.219.755 2.102 3.092 3.174 5.219 2.394zM696.632 170.945c2.127-.78 3.239-3.117 2.484-5.219-.756-2.102-3.092-3.173-5.219-2.393-2.127.78-3.239 3.116-2.483 5.218.755 2.102 3.091 3.174 5.218 2.394z"
        fill="#F2F2F2" />
      <g clip-path="url(#clip0)">
        <rect width="75.001" height="194.955" rx="3.869" transform="matrix(.93401 -.35101 .33056 .9418 939.129 208.157)" fill="#fff" />
        <g clip-path="url(#clip1)">
          <rect width="57.443" height="12.574" rx="1.935" transform="matrix(.93401 -.35101 .33056 .9418 950.138 213.301)" fill="#DDE3E9" />
          <rect width="57.443" height="12.091" rx="1.935" transform="matrix(.93401 -.35101 .33056 .9418 955.573 228.787)" fill="#AFB9C5" />
          <rect width="57.443" height="12.091" rx="1.935" transform="matrix(.93401 -.35101 .33056 .9418 960.849 243.818)" fill="#DDE3E9" />
          <rect width="57.443" height="12.091" rx="1.935" transform="matrix(.93401 -.35101 .33056 .9418 971.4 273.88)" fill="#DDE3E9" />
          <rect width="57.443" height="12.091" rx="1.935" transform="matrix(.93401 -.35101 .33056 .9418 966.125 258.849)" fill="#C5CFD6" />
        </g>
      </g>
      <g clip-path="url(#clip2)">
        <g clip-path="url(#clip3)">
          <rect width="236.816" height="46.73" rx="1.935" transform="matrix(.93331 -.3534 .32848 .94271 685.622 208.612)" fill="#fff" />
          <g clip-path="url(#clip4)" fill="#DDE3E9">
            <rect width="208.766" height="7.008" rx="1.451" transform="matrix(.93331 -.3534 .32848 .94271 694.289 220.288)" />
            <rect width="140.13" height="7.008" rx="1.451" transform="matrix(.93331 -.3534 .32848 .94271 698.125 231.299)" />
          </g>
          <path fill-rule="evenodd" clip-rule="evenodd" d="M845.78 176.514a3.49 3.49 0 002.048-4.388 3.272 3.272 0 00-4.272-1.995 3.489 3.489 0 00-2.047 4.388 3.272 3.272 0 004.271 1.995z" fill="#DDE3E9" />
          <path fill-rule="evenodd" clip-rule="evenodd" d="M845.145 174.69a1.495 1.495 0 00.877-1.88 1.4 1.4 0 00-1.83-.855 1.495 1.495 0 00-.878 1.88 1.403 1.403 0 001.831.855z" fill="#F2F2F2" />
        </g>
        <g clip-path="url(#clip5)">
          <rect width="236.816" height="38.861" rx="1.935" transform="matrix(.93331 -.3534 .32848 .94271 703.582 260.155)" fill="#fff" />
          <g clip-path="url(#clip6)" fill="#DDE3E9">
            <rect width="208.766" height="5.815" rx="1.451" transform="matrix(.93331 -.3534 .32848 .94271 711.465 269.581)" />
            <rect width="140.13" height="5.815" rx="1.451" transform="matrix(.93331 -.3534 .32848 .94271 714.648 278.718)" />
          </g>
          <path fill-rule="evenodd" clip-rule="evenodd" d="M862.448 224.347a3.49 3.49 0 002.047-4.388 3.271 3.271 0 00-4.271-1.995 3.49 3.49 0 00-2.048 4.388 3.272 3.272 0 004.272 1.995z" fill="#DDE3E9" />
          <path fill-rule="evenodd" clip-rule="evenodd" d="M861.812 222.523a1.495 1.495 0 00.878-1.88 1.403 1.403 0 00-1.831-.855 1.495 1.495 0 00-.878 1.88 1.402 1.402 0 001.831.855z" fill="#F2F2F2" />
        </g>
        <g clip-path="url(#clip7)">
          <rect width="236.816" height="38.861" rx="1.935" transform="matrix(.93331 -.3534 .32848 .94271 718.929 304.2)" fill="#fff" />
          <g clip-path="url(#clip8)" fill="#DDE3E9">
            <rect width="208.766" height="5.815" rx="1.451" transform="matrix(.93331 -.3534 .32848 .94271 726.812 313.626)" />
            <rect width="140.13" height="5.815" rx="1.451" transform="matrix(.93331 -.3534 .32848 .94271 729.996 322.764)" />
          </g>
          <path fill-rule="evenodd" clip-rule="evenodd" d="M877.795 268.392a3.488 3.488 0 002.047-4.387 3.27 3.27 0 00-4.271-1.995 3.49 3.49 0 00-2.048 4.387 3.272 3.272 0 004.272 1.995z" fill="#DDE3E9" />
          <path fill-rule="evenodd" clip-rule="evenodd" d="M877.159 266.569a1.496 1.496 0 00.878-1.881 1.403 1.403 0 00-1.831-.855 1.495 1.495 0 00-.877 1.881 1.402 1.402 0 001.83.855z" fill="#AFB9C5" />
        </g>
        <g clip-path="url(#clip9)">
          <rect width="236.816" height="38.861" rx="1.935" transform="matrix(.93331 -.3534 .32848 .94271 764.972 436.337)" fill="#fff" />
          <g clip-path="url(#clip10)" fill="#DDE3E9">
            <rect width="208.766" height="5.815" rx="1.451" transform="matrix(.93331 -.3534 .32848 .94271 772.854 445.763)" />
            <rect width="140.13" height="5.815" rx="1.451" transform="matrix(.93331 -.3534 .32848 .94271 776.038 454.9)" />
          </g>
          <path fill-rule="evenodd" clip-rule="evenodd" d="M923.837 400.529a3.49 3.49 0 002.048-4.388 3.272 3.272 0 00-4.272-1.995 3.489 3.489 0 00-2.047 4.388 3.271 3.271 0 004.271 1.995z" fill="#DDE3E9" />
          <path fill-rule="evenodd" clip-rule="evenodd" d="M923.202 398.705a1.494 1.494 0 00.877-1.88 1.401 1.401 0 00-1.83-.855 1.495 1.495 0 00-.878 1.88 1.402 1.402 0 001.831.855z" fill="#F2F2F2" />
        </g>
        <g clip-path="url(#clip11)">
          <rect width="236.816" height="38.861" rx="1.935" transform="matrix(.93331 -.3534 .32848 .94271 749.624 392.291)" fill="#fff" />
          <g clip-path="url(#clip12)" fill="#DDE3E9">
            <rect width="208.766" height="5.815" rx="1.451" transform="matrix(.93331 -.3534 .32848 .94271 757.507 401.717)" />
            <rect width="140.13" height="5.815" rx="1.451" transform="matrix(.93331 -.3534 .32848 .94271 760.69 410.854)" />
          </g>
          <path fill-rule="evenodd" clip-rule="evenodd" d="M908.49 356.483c1.745-.66 2.661-2.625 2.047-4.387a3.272 3.272 0 00-4.271-1.996 3.49 3.49 0 00-2.048 4.388 3.272 3.272 0 004.272 1.995z" fill="#DDE3E9" />
          <path fill-rule="evenodd" clip-rule="evenodd" d="M907.854 354.66a1.496 1.496 0 00.878-1.881 1.403 1.403 0 00-1.831-.855 1.496 1.496 0 00-.878 1.881 1.403 1.403 0 001.831.855z" fill="#F2F2F2" />
        </g>
        <g clip-path="url(#clip13)">
          <rect width="236.816" height="38.861" rx="1.935" transform="matrix(.93331 -.3534 .32848 .94271 734.277 348.246)" fill="#fff" />
          <g clip-path="url(#clip14)" fill="#DDE3E9">
            <rect width="208.766" height="5.815" rx="1.451" transform="matrix(.93331 -.3534 .32848 .94271 742.16 357.672)" />
            <rect width="140.13" height="5.815" rx="1.451" transform="matrix(.93331 -.3534 .32848 .94271 745.343 366.809)" />
          </g>
          <path fill-rule="evenodd" clip-rule="evenodd" d="M893.142 312.438a3.49 3.49 0 002.048-4.388 3.273 3.273 0 00-4.272-1.995 3.49 3.49 0 00-2.047 4.388 3.27 3.27 0 004.271 1.995z" fill="#DDE3E9" />
          <path fill-rule="evenodd" clip-rule="evenodd" d="M892.507 310.614a1.495 1.495 0 00.878-1.88 1.402 1.402 0 00-1.831-.855 1.495 1.495 0 00-.878 1.88 1.402 1.402 0 001.831.855z" fill="#F2F2F2" />
        </g>
      </g>
    </g>
    <g opacity=".7">
      <rect opacity=".1" width="313.963" height="367.864" rx="7.704" transform="matrix(-.93187 -.36279 -.3612 .9325 1522.77 116.604)" fill="#A36633" />
      <path d="M1519.99 123.788c1.53-3.968-.44-8.435-4.4-9.979L1237.37 5.498c-3.96-1.544-8.42.421-9.96 4.389l-7.58 19.584 292.57 113.901 7.59-19.584z" fill="#A36633" />
      <path fill-rule="evenodd" clip-rule="evenodd"
        d="M1502.96 129.431a4.263 4.263 0 01-2.43-5.51 4.25 4.25 0 015.51-2.422 4.271 4.271 0 012.43 5.51 4.254 4.254 0 01-5.51 2.422zM1491.06 124.797a4.263 4.263 0 01-2.43-5.51 4.244 4.244 0 015.5-2.421 4.276 4.276 0 012.44 5.51 4.255 4.255 0 01-5.51 2.421zM1479.16 120.164a4.263 4.263 0 01-2.43-5.51 4.244 4.244 0 015.5-2.422 4.263 4.263 0 012.43 5.511c-.84 2.19-3.31 3.274-5.5 2.421z"
        fill="#F2F2F2" />
      <rect width="279.501" height="298.757" rx="3.852" transform="matrix(-.93187 -.36279 -.3612 .9325 1490.77 152.066)" fill="#fff" />
      <g clip-path="url(#clip15)" fill="#DDE3E9">
        <rect width="222.819" height="6.22" rx="2.889" transform="matrix(-.93187 -.36279 -.3612 .9325 1453.99 168.552)" />
        <rect width="149.563" height="6.22" rx="2.889" transform="matrix(-.93187 -.36279 -.3612 .9325 1450.25 178.219)" />
      </g>
      <rect width="222.819" height="6.22" rx="2.889" transform="matrix(-.93187 -.36279 -.3612 .9325 1445.93 189.372)" fill="#DDE3E9" />
      <rect width="222.819" height="6.22" rx="2.889" transform="matrix(-.93187 -.36279 -.3612 .9325 1445.93 189.372)" fill="#DDE3E9" />
      <rect width="222.819" height="6.22" rx="2.889" transform="matrix(-.93187 -.36279 -.3612 .9325 1441.7 200.278)" fill="#DDE3E9" />
      <rect width="222.819" height="6.22" rx="2.889" transform="matrix(-.93187 -.36279 -.3612 .9325 1437.48 211.184)" fill="#DDE3E9" />
      <rect width="222.819" height="6.22" rx="2.889" transform="matrix(-.93187 -.36279 -.3612 .9325 1433.26 222.089)" fill="#DDE3E9" />
      <rect width="222.819" height="6.22" rx="2.889" transform="matrix(-.93187 -.36279 -.3612 .9325 1429.03 232.995)" fill="#DDE3E9" />
      <rect width="222.819" height="6.22" rx="2.889" transform="matrix(-.93187 -.36279 -.3612 .9325 1424.81 243.9)" fill="#DDE3E9" />
      <rect width="107.5" height="6.379" rx="2.889" transform="matrix(-.93187 -.36279 -.3612 .9325 1420.58 254.806)" fill="#DDE3E9" />
      <rect width="222.819" height="6.22" rx="2.889" transform="matrix(-.93187 -.36279 -.3612 .9325 1416.36 265.711)" fill="#DDE3E9" />
      <rect width="222.819" height="6.22" rx="2.889" transform="matrix(-.93187 -.36279 -.3612 .9325 1412.13 276.617)" fill="#DDE3E9" />
      <rect width="222.819" height="6.22" rx="2.889" transform="matrix(-.93187 -.36279 -.3612 .9325 1407.91 287.523)" fill="#DDE3E9" />
      <rect width="222.819" height="6.22" rx="2.889" transform="matrix(-.93187 -.36279 -.3612 .9325 1403.69 298.428)" fill="#DDE3E9" />
      <rect width="222.819" height="6.22" rx="2.889" transform="matrix(-.93187 -.36279 -.3612 .9325 1399.46 309.334)" fill="#DDE3E9" />
      <rect width="222.819" height="6.22" rx="2.889" transform="matrix(-.93187 -.36279 -.3612 .9325 1395.24 320.24)" fill="#DDE3E9" />
      <rect width="116.296" height="6.379" rx="2.889" transform="matrix(-.93187 -.36279 -.3612 .9325 1391.01 331.145)" fill="#DDE3E9" />
      <rect width="222.819" height="6.22" rx="2.889" transform="matrix(-.93187 -.36279 -.3612 .9325 1386.79 342.051)" fill="#DDE3E9" />
      <rect width="222.819" height="6.22" rx="2.889" transform="matrix(-.93187 -.36279 -.3612 .9325 1382.57 352.956)" fill="#DDE3E9" />
      <rect width="222.819" height="6.22" rx="2.889" transform="matrix(-.93187 -.36279 -.3612 .9325 1378.34 363.862)" fill="#DDE3E9" />
      <rect width="102.614" height="6.379" rx="2.889" transform="matrix(-.93187 -.36279 -.3612 .9325 1374.12 374.768)" fill="#DDE3E9" />
    </g>
    <path fill-rule="evenodd" clip-rule="evenodd" d="M1145.25 315.879c1.58.672 3.07.895 3.72.627 1.63-.671.92-6.851-.73-9.095-1.65-2.245-8.51-2.359-8.17 2.499.11 1.686 1.03 3.077 2.24 4.147l-.65 8.917 5.41-.76-1.82-6.335z" fill="#B28B67" />
    <path fill-rule="evenodd" clip-rule="evenodd"
      d="M1145.73 305.067c-.77-.121-1.85-.047-2.3.068.17-.649.18-1.347 0-2.001-.17-.635-.54-1.145-.89-1.684-.16-.249-.33-.494-.57-.668a1.63 1.63 0 00-.82-.302c-.3-.026-.6.022-.88.123-.13.045-.23.12-.35.17-.13.051-.2-.021-.31-.088-.25-.163-.59-.212-.88-.207-.33.007-.65.101-.94.249-.28.143-.54.349-.72.62-.08.12-.15.254-.19.397-.02.059-.01.092-.07.12-.05.026-.11.035-.16.06-.48.244-.86.699-1.03 1.238-.1.314-.09.842.01 1.422.1.579.84 2.022 1.41 2.507.51.432 1.2.667 1.84.722-.34.531-.54 1.159-.66 1.787a8.019 8.019 0 00-.12 2.076c.04.662.14 1.356.38 1.975.23.58.61 1.028 1.16 1.268.26.11.53.182.8.244.26.062.53.12.8.137.51.033 1.08-.065 1.41-.515.12-.162.25-.362.32-.551.03-.067.05-.111-.01-.166-.06-.066-.15-.111-.23-.158a1.944 1.944 0 01-.86-1.186c-.14-.518-.09-1.218.39-1.52.59-.372 1.34-.145 1.94.079.12-.876.51-1.703 1.22-2.198.8-.547 1.77-.735 2.59-1.225.22-.127.43-.269.57-.487.06-.091.13-.208.14-.32.02-.147-.09-.252-.17-.353-.46-.531-2.05-1.513-2.82-1.633z"
      fill="#184747" />
    <path fill-rule="evenodd" clip-rule="evenodd" d="M1143.6 340.851l16.91 28.197 12.69 23.838h2.73l-21.25-52.035h-11.08z" fill="#997659" />
    <path fill-rule="evenodd" clip-rule="evenodd"
      d="M1173.54 391.94c-1.05 0-2.29.198-2.39 1.242 0 .044-.01.086-.01.125 0 .614.21 1.792.21 1.792h12.84s.5-1.65-.58-1.781c-1.08-.132-1.79-.238-1.79-.238l-5.24-2.331a.997.997 0 00-1.33.532l-.08.195s-1 .464-1.63.464z" fill="#E4E4E4" />
    <path fill-rule="evenodd" clip-rule="evenodd" d="M1169.67 389.069l5.27-1.589s-3.46-10.319-8.48-22.712c-5.03-12.392-10.8-23.917-10.8-23.917h-14.88s6.42 14.579 13.6 26.494 15.29 21.724 15.29 21.724z" fill="#A26638" />
    <path fill-rule="evenodd" clip-rule="evenodd" d="M1142.48 340.851c-1.59 9.908-4.67 22.568-4.96 22.958-.2.261-7.17 2.591-20.93 6.991l.59 2.402c16.41-2.36 25.05-4.191 25.93-5.493 1.33-1.952 7.94-17.379 10.5-26.858h-11.13z" fill="#B28B67" />
    <path fill-rule="evenodd" clip-rule="evenodd" d="M1121.43 368.724l1.04 3.868c12.27 1.073 19.79.298 22.55-2.326 2.77-2.623 5.92-12.428 9.46-29.415h-14.19c-2.24 13.91-3.5 21.157-3.76 21.741-.27.584-5.3 2.628-15.1 6.132z" fill="#C9844F" />
    <path fill-rule="evenodd" clip-rule="evenodd"
      d="M1117.46 371.806c-.18-1.029-.59-2.211-1.63-2.134-.05.004-.09.009-.13.016-.61.107-1.74.513-1.74.513.13.701 2.23 12.608 2.23 12.608s1.72.204 1.66-.877c-.06-1.082-.07-1.801-.07-1.801l1.39-5.547a1.01 1.01 0 00-.76-1.221l-.21-.044s-.63-.9-.74-1.513z"
      fill="#E4E4E4" />
    <path fill-rule="evenodd" clip-rule="evenodd"
      d="M1159.6 320.84l-7.22 5.373 3.32 2.686 4.96-5.99c2.88-1.244 4.16-2.038 3.85-2.384-.26-.291-.6-.231-.92-.175-.25.043-.48.083-.65-.048-.37-.299.08-1.588.55-2.794.48-1.205-.18-1.013-.55-.798-1.14 1.03-2.25 2.406-3.34 4.13zm8.71 4.89l-3.17 2.366.68 3.411s2-1.915 3.84-2.716c2.35-1.022 3.26-1.68 4.24-3.363.53-.901.84-2.608.16-3.054-.27-.171-1.07.433-1.88 1.048-.63.47-1.26.946-1.67 1.092-.55.197-.59-.548-.62-1.143-.02-.426-.04-.776-.24-.646-1 .159-1.34 3.005-1.34 3.005z"
      fill="#997659" />
    <path fill-rule="evenodd" clip-rule="evenodd" d="M1148.43 325.796c2.74-.414 6.31-1.505 9.87-4.521l2.01 3.19c-2.32 3.04-5.8 5.758-9.12 6.131-2.61.293-4.39-2.663-2.76-4.8z" fill="#458E94" />
    <path fill-rule="evenodd" clip-rule="evenodd"
      d="M1146.78 317.212l-5.44.764-.2.028c-.68.096-4.09 9.662-3.28 15.452.27 1.988-.18 3.801-.66 5.71-.8 3.168-1.67 6.599.65 11.53 1.38-.478 3.81-.503 6.47-.531 4.96-.051 10.68-.111 11.63-3.16.71-2.275.68-4.653.2-7.089 4.14-.673 8.98-2.745 14.43-6.631-.12-2.265-3.41-7.163-3.41-7.163s-9.59 5-14.28 4.61a293.3 293.3 0 00-1.22-2.619c-1.75-3.734-3.49-7.445-4.27-10.988l-.62.087z"
      fill="#51B0B7" />
    <path fill-rule="evenodd" clip-rule="evenodd" d="M763.38 339.965c2 1.347 3.965 1.998 4.888 1.733 2.312-.667 2.525-10.121.735-13.848-1.789-3.728-10.987-5.352-11.451 2.033-.16 2.562.802 4.849 2.224 6.715l-2.551 13.291h7.41l-1.255-9.924z"
      fill="#B28B67" />
    <path fill-rule="evenodd" clip-rule="evenodd"
      d="M764.779 323.554c-.977-.179-3.607-.302-4.092-.302-.31 0-.645.079-.829-.239-.15-.261-.095-.701-.14-1.003a15.89 15.89 0 00-.201-1.044 11.374 11.374 0 00-.986-2.798c-.845-1.648-2.084-2.94-3.647-3.691-1.727-.83-3.681-1.019-5.538-.851-1.988.18-3.787.913-5.664 1.603-1.788.658-3.661.917-5.532.596-1.884-.324-3.308-1.465-4.898-2.549-1.627-1.109-3.487-1.835-5.41-1.668-1.796.156-3.451.985-4.936 2.092-1.389 1.035-2.536 2.281-3.183 4.035-.696 1.887-.695 3.957.45 5.625 1.659 2.416 4.74 3.041 7.303 2.979a12.66 12.66 0 004.338-.888c1.867-.734 3.48-1.978 5.226-2.987.82-.473 1.667-.862 2.555-1.142.861-.272 1.71-.397 2.49.185.826.615 1.565 1.22 2.509 1.605a7.356 7.356 0 002.83.568c1.878-.016 3.729-.67 5.552-1.108 1.487-.357 3.078-.713 4.594-.37.633.143 1.557.439 1.785 1.174-3.845.779-5.356 6.094-4.272 9.996.586 2.106 4.103 4.568 5.47 3.461.867-.702.341-1.623 0-2.231-.652-1.164-.875-2.659.332-3.469 1.04-.699 2.134.961 2.155.959.286-.026 2.757-1.587 4.459-3.866 1.679.111 1.934-1.127 1.533-2.139-.401-1.012-2.904-2.286-4.253-2.533z"
      fill="#184747" />
    <path fill-rule="evenodd" clip-rule="evenodd" d="M751.722 377.296c.556 8.522 36.351 33.612 36.56 34.316.139.469-11.142 29.671-11.142 29.671l3.129 1.366s17.304-30.926 16.415-34.222c-1.273-4.718-27.773-31.041-27.773-31.041l-17.189-.09z"
      fill="#B28B67" />
    <path fill-rule="evenodd" clip-rule="evenodd" d="M777.964 436.886l5.109 2.09c10.773-13.659 14.995-24.928 14.225-30.67-.77-5.742-27.677-30.989-27.677-30.989h-18.265c.624 19.735 33.802 34.37 34.245 35.211.444.841-3.923 9.078-7.637 24.358z"
      fill="#653918" />
    <path fill-rule="evenodd" clip-rule="evenodd"
      d="M778.483 441.882c-1.318-.539-2.909-.912-3.534.35a2.7 2.7 0 00-.152.362c-.285.88-.571 2.675-.571 2.675l16.332 6.681s1.403-2.105.093-2.855c-1.311-.749-2.169-1.272-2.169-1.272l-5.304-5.761c-.689-.749-1.808-.749-2.416-.001 0 0-1.485.146-2.279-.179z"
      fill="#E4E4E4" />
    <path fill-rule="evenodd" clip-rule="evenodd" d="M755.839 377.296l-15.946 43.018-15.673 36.369h3.698l40.454-79.387h-12.533z" fill="#997659" />
    <path fill-rule="evenodd" clip-rule="evenodd"
      d="M726.73 455.24c-1.397 0-2.992.249-3.206 1.63a3.073 3.073 0 00-.041.455c0 .937.278 2.734.278 2.734h17.38s.678-2.517-.782-2.718c-1.46-.2-2.425-.362-2.425-.362l-6.706-3.36a1.66 1.66 0 00-2.302.913s-1.351.708-2.196.708z" fill="#E4E4E4" />
    <path fill-rule="evenodd" clip-rule="evenodd" d="M725.635 449.128l8.216 1.731c6.353-10.495 32.939-53.53 35.854-73.563h-18.291c-9.734 14.482-19.723 61.163-25.779 71.832z" fill="#A36633" />
    <path fill-rule="evenodd" clip-rule="evenodd"
      d="M794.074 363.096l-11.15 5.516 3.56 5.138 8.35-7.212c4.172-.863 6.106-1.604 5.804-2.224-.255-.523-.729-.552-1.166-.579-.34-.021-.658-.041-.831-.292-.397-.571.581-2.337 1.573-3.968.991-1.632.062-1.573-.482-1.378-1.819 1.141-3.705 2.807-5.658 4.999zm-49.923 8.445l-6.306-1.409c-4.277 12.696-6.826 19.654-7.649 20.873-.603.893-4.323 3.195-6.841 4.425-1.011.493-.794 1.455-.497 1.763 1.87 1.941 3.608 1.261 5.5.52.548-.214 1.108-.434 1.689-.596 1.503-.42 1.96.45 2.392 1.272.383.729.745 1.419 1.797 1.144-.048-.233-.107-.493-.17-.774-.41-1.816-1.014-4.495-.118-6.052.46-.798 3.861-7.854 10.203-21.166z"
      fill="#B28B67" />
    <path fill-rule="evenodd" clip-rule="evenodd" d="M761.289 343.556l2.661-.514c5.795 6.333 8.16 21.548 12.023 23.562 3.651 1.904 8.828.061 14.981-2.427l1.885 4.743c-5.591 6.813-17.502 12.569-22.329 9.283-7.719-5.253-9.501-24.018-9.221-34.647z"
      fill="#1C9FA8" />
    <path fill-rule="evenodd" clip-rule="evenodd" d="M749.69 381.224h23.544c1.076 0 .873-1.75.717-2.633-1.794-10.191-8.801-21.176-8.801-35.683l-6.791-1.2c-5.617 10.177-7.56 22.706-8.669 39.516z" fill="#DDE3E9" />
    <path fill-rule="evenodd" clip-rule="evenodd" d="M765.652 388.503h-21.193c.335-5.698 1.41-11.723 2.883-17.597-4.8 9.752-8.834 16.773-12.103 21.063l-4.935-1.088c3.179-22.208 12.384-38.599 27.617-49.172h.077v-.001h2.612s9.145 35.115 5.042 46.795z"
      fill="#2F6267" />
    <path fill-rule="evenodd" clip-rule="evenodd" d="M980.441 328.219c-3.978 2.397-7.886 3.556-9.721 3.083-4.6-1.186-5.023-18.015-1.463-24.65 3.559-6.634 21.857-9.526 22.78 3.619.32 4.562-1.596 8.634-4.426 11.956l5.075 23.655h-14.742l2.497-17.663z"
      fill="#B28B67" />
    <path fill-rule="evenodd" clip-rule="evenodd"
      d="M970.219 304.079c.129-.801-.126-1.195 3.097-3.453 3.223-2.259 8.427-4.922 13.669-3.763 6.802 1.504 9.504 5.991 12.127 8.173 2.368 1.966 4.738 2.195 6.138 4.636 1.41 2.44 2.16 9.46.94 12.251-1.69 3.85-5.02 4.887-7.444 5.996-4.164 1.902-10.049-.107-10.192-.44-1.103-2.574-7.039-9.836-10.61-12.888-2.626-2.243-8.331-6.749-7.725-10.512z"
      fill="#2F6267" />
    <mask id="a" maskUnits="userSpaceOnUse" x="970" y="296" width="37" height="33">
      <path fill-rule="evenodd" clip-rule="evenodd"
        d="M970.219 304.079c.129-.801-.126-1.195 3.097-3.453 3.223-2.259 8.427-4.922 13.669-3.763 6.802 1.504 9.504 5.991 12.127 8.173 2.368 1.966 4.738 2.195 6.138 4.636 1.41 2.44 2.16 9.46.94 12.251-1.69 3.85-5.02 4.887-7.444 5.996-4.164 1.902-10.049-.107-10.192-.44-1.103-2.574-7.039-9.836-10.61-12.888-2.626-2.243-8.331-6.749-7.725-10.512z"
        fill="#fff" />
    </mask>
    <g mask="url(#a)">
      <path fill-rule="evenodd" clip-rule="evenodd" d="M983.51 333.76c10.044-12.386 12.407-27.324 12.407-27.324l3.025 1.914s-3.721 16.324-15.432 25.41zm-3.821 6.806c16.254-14.281 20.13-30.33 20.13-30.33l3.501 1.032s-4.824 17.946-23.631 29.298z"
        fill="#000" fill-opacity=".2" />
    </g>
    <path fill-rule="evenodd" clip-rule="evenodd" d="M1002.49 397.751l-23.077 75.602-11.181 64.294h-8.766l11.814-139.896h31.21z" fill="#997659" />
    <path fill-rule="evenodd" clip-rule="evenodd" d="M1010.75 397.751c-1.57 41.509.28 62.92.63 66.692.35 3.771 5.15 28.225 16.53 74.47l-9.34-3.214c-17.98-42.414-24.105-64.458-26.167-70.027-2.061-5.57-7.537-28.21-16.427-67.921h34.774z"
      fill="#B28B67" />
    <path fill-rule="evenodd" clip-rule="evenodd"
      d="M1025.96 535.043c.75-.326 1.65.009 1.93.783.43 1.228.98 2.953.98 3.946 0 1.662-.56 4.851-.56 4.851h-34.589s-1.349-4.466 1.557-4.823c2.905-.356 4.822-.643 4.822-.643l16-7.144c.36-.162.78.008.93.374l1 2.427s2.69 1.258 4.37 1.258c.97 0 2.47-.557 3.56-1.029zM968.306 535.043c.755-.326 1.651.009 1.927.783.437 1.228.98 2.953.98 3.946 0 1.662-.552 4.851-.552 4.851h-34.593s-1.349-4.466 1.556-4.823c2.906-.356 4.827-.643 4.827-.643l15.995-7.144a.701.701 0 01.935.374l.999 2.427s2.689 1.258 4.371 1.258c.97 0 2.464-.557 3.555-1.029z"
      fill="#E4E4E4" />
    <path fill-rule="evenodd" clip-rule="evenodd" d="M1005.56 397.751l-9.813 38.518h-29.974l4.469-38.518h35.318z" fill="#69A1AC" />
    <path fill-rule="evenodd" clip-rule="evenodd" d="M1011.08 397.751c4.84 14.546 1.84 38.518 1.84 38.518h-30.587l-8.411-38.518h37.158z" fill="#89C5CC" />
    <path fill-rule="evenodd" clip-rule="evenodd"
      d="M917.778 336.512l24.026 3.669-4.51 10.616-19.406-8.012c-8.438.679-12.508.411-12.209-.804.252-1.025 1.153-1.32 1.982-1.592.647-.211 1.25-.409 1.47-.926.502-1.181-2.193-3.694-4.852-5.969-2.659-2.276-.84-2.655.298-2.602 4.03 1.009 8.43 2.883 13.201 5.62zm14.363 60.908l17.403-16.949 5.777 9.981-18.096 10.653c-4.538 7.136-7.204 10.219-7.996 9.25-.667-.817-.361-1.713-.079-2.538.22-.642.425-1.242.144-1.728-.643-1.111-4.276-.474-7.697.278-3.422.751-2.63-.927-1.902-1.803 3.234-2.605 7.382-4.987 12.446-7.144z"
      fill="#B28B67" />
    <path fill-rule="evenodd" clip-rule="evenodd" d="M974.299 337.934c-7.802 21.151-20.962 38.374-40.91 57.159l9.714 8.261c23.442-12.65 35.717-20.02 39.515-39.502.954-4.889-.011-19.913-.146-27.871l-8.173 1.953z" fill="#00383D" />
    <path fill-rule="evenodd" clip-rule="evenodd" d="M1013.05 399.305l-46.841 6.583s9.105-50.685 6.912-68.789c-.074-.615.909-1.856 1.431-1.785 5.729.779 11.629-2.819 11.629-2.819 13.609 16.265 20.529 37.673 26.869 66.81z" fill="#F2F2F2" />
    <path fill-rule="evenodd" clip-rule="evenodd"
      d="M978.255 361.342c-2.913 32.351 1.028 57.944 17.178 55.674l24.977-3.51c.22-27.165-15.39-62.593-27.666-79.843-.469-.658-1.443-1.888-3.293-1.627l-7.257 1.019-.005.031c-2.181.324-4.575.742-7.167 1.194-13.344 2.329-31.951 5.576-53.933 1.791l-.742 12.719c20.699 9.52 41.251 16.261 57.908 12.552z"
      fill="#A36633" />
    <path fill-rule="evenodd" clip-rule="evenodd" d="M1373.62 254.566c-5.08 2.273-9.9 3.081-12.02 2.25-5.3-2.083-3.34-22.171 1.87-29.547 5.2-7.376 27.4-8.146 26.57 7.632-.28 5.476-3.16 10.041-7.01 13.582l2.58 28.89-17.54-2.152 5.55-20.655z"
      fill="#915B3C" />
    <path fill-rule="evenodd" clip-rule="evenodd"
      d="M1374.58 219.396c2.36-.096 8.62.407 9.76.548.74.09 1.51.355 2.03-.265.42-.508.41-1.457.59-2.084.22-.729.48-1.441.75-2.152a22.8 22.8 0 013.06-5.641c2.43-3.246 5.7-5.622 9.6-6.759 4.3-1.256 8.97-1.091 13.33-.195 4.65.958 8.72 3.034 12.98 5.041 4.07 1.912 8.43 3.005 12.94 2.867 4.55-.138 8.21-2.142 12.26-3.976 4.14-1.877 8.73-2.873 13.24-1.962 4.21.852 7.91 3.088 11.14 5.864 3.02 2.597 5.41 5.569 6.48 9.472 1.16 4.199.62 8.585-2.53 11.784-4.55 4.637-12.01 5.067-18.06 4.191-3.5-.507-6.87-1.57-10.04-3.142-4.22-2.097-7.72-5.199-11.59-7.844a32.141 32.141 0 00-5.75-3.162c-1.97-.826-3.94-1.337-5.94-.331-2.11 1.064-4.02 2.129-6.36 2.671-2.24.52-4.56.68-6.84.382-4.44-.58-8.65-2.502-12.86-3.959-3.42-1.189-7.1-2.404-10.77-2.118-1.54.12-3.8.478-4.53 1.968 8.9 2.767 11.09 14.464 7.5 22.415-1.93 4.291-10.89 8.484-13.84 5.742-1.87-1.737-.39-3.535.58-4.724 1.84-2.276 2.76-5.379.12-7.446-2.28-1.783-5.31 1.416-5.35 1.406-.67-.137-6.12-4.163-9.55-9.485-4.01-.252-4.29-2.947-3.07-4.975 1.21-2.027 7.46-3.999 10.72-4.131z"
      fill="#2C2003" />
    <path fill-rule="evenodd" clip-rule="evenodd" d="M1379.65 337.567l-26.98 92.961-12.68 69.797h-12.74l12.72-162.758h39.68z" fill="#784931" />
    <path fill-rule="evenodd" clip-rule="evenodd" d="M1391.77 337.567c-1.88 48.293-1.14 74.633-.72 79.021.42 4.387 2.81 33.773 19.11 85.21h-13.25c-21.58-49.345-29.11-78.731-31.59-85.21-2.47-6.48-9.78-32.82-20.45-79.021h46.9z" fill="#915B3C" />
    <path fill-rule="evenodd" clip-rule="evenodd" d="M1380.23 337.567c-7.02 31.989-19.16 83.05-36.41 153.184h-18.62c-1.38-71.986 4.47-119.365 14.61-153.184h40.42z" fill="#386B4A" />
    <path fill-rule="evenodd" clip-rule="evenodd" d="M1391.86 337.567c-1.84 48.293 2.94 95.871 17.73 153.936h-19.87c-21.62-48.609-37.11-95.952-47.7-153.936h49.84z" fill="#558345" />
    <path fill-rule="evenodd" clip-rule="evenodd"
      d="M1412.04 511.372l-.69-11.141a.535.535 0 00-.66-.479c-6.4 1.503-15.45-1.637-15.45-1.637-9.21 6.524-22.65 9.379-26.62 10.112-.61.112-1 .725-.83 1.321l1.14 4.033h41.65l1.46-2.209zM1342.83 511.372l-.69-11.141a.535.535 0 00-.66-.479c-6.4 1.503-15.46-1.637-15.46-1.637-9.2 6.524-22.64 9.379-26.62 10.112-.61.112-1 .725-.83 1.321l1.15 4.033h41.65l1.46-2.209z"
      fill="#191847" />
    <path fill-rule="evenodd" clip-rule="evenodd"
      d="M1292.69 333.793l26.13-12.914 2.88 13.543-24.58 5.465c-7.82 6.47-12 9.004-12.54 7.604-.46-1.181.22-2.091.85-2.929.49-.652.94-1.262.8-1.921-.32-1.507-4.7-2.126-8.88-2.535-4.17-.41-2.65-2.033-1.5-2.764 4.66-1.778 10.27-2.962 16.84-3.549zm116.02 51.305c-1.36-4.686-1.18-47.986-1.18-47.986l-15.17-2.61s6.04 47.788 6.67 50.758c.82 3.858-2.57 8.656-4.87 11.91-.36.503-.69.969-.97 1.39 2.14 1.448 3.47.388 4.88-.729 1.6-1.262 3.28-2.597 6.32-.474 1.17.82 2.26 1.736 3.32 2.631 3.66 3.093 7.03 5.934 12.69 3.685.89-.357 2.11-2.08.23-3.926-4.69-4.599-11.25-12.358-11.92-14.649z"
      fill="#915B3C" />
    <path fill-rule="evenodd" clip-rule="evenodd" d="M1375.69 265.928l-6.08-2.181c-26.81 16.003-43.18 52.936-75.31 68.369l5.36 9.719c50.55 2.589 71.13-42.354 76.03-75.907z" fill="#7C5A02" />
    <path fill-rule="evenodd" clip-rule="evenodd" d="M1389.11 349.557l-55.48-9.774c-2.53-.447-1.41-4.024-.72-5.807 8-20.578 28.56-40.655 33.92-71.008l16.45.309c9.48 23.625 9.43 50.648 5.83 86.28z" fill="#DDE3E9" />
    <path fill-rule="evenodd" clip-rule="evenodd"
      d="M1392.66 365.887c1.44 6.429 2.96 12.086 4.56 16.507l11.9 2.096c8.58-41.174-1.46-75.79-11.19-97.308 2.95.305 5.79-.451 7.98-3.157 7.71-9.526 6.63-15.71.71-18.722-3.25-1.656-6.61-1.509-10.63-1.332-3.29.145-7.02.308-11.5-.481h-.01a7.773 7.773 0 00-1.2-.125l-5.36-.632s-34.46 69.287-29.11 95.428l43.85 7.726z"
      fill="#C56710" />
    <path fill-rule="evenodd" clip-rule="evenodd" d="M1392.67 365.887c-1.89-8.435-3.63-18.199-5.18-28.242-3.04 10.221-6.9 20.347-11.21 25.355l16.39 2.887z" fill="#000" fill-opacity=".1" />
    <g opacity=".3">
      <path fill-rule="evenodd" clip-rule="evenodd"
        d="M521.41 180.432a35.715 35.715 0 00-1.706-.426c-.437-.096-1.072-.365-1.505-.202-.45.169-.569.735-.612 1.146-.23 2.174.052 4.235 1.265 6.153 1.867 2.955 4.386 4.887 7.588 6.32 2.249 1.007 4.543 1.099 6.692-.058.665 2.637.963 5.435.778 8.125a17.89 17.89 0 01-.719 3.868c-.241.816-.5 1.625-.803 2.419-.132.346-.457.834-.402 1.209.064.441.617.635.958.367.283-.222.388-.784.517-1.104a37.91 37.91 0 00.616-1.605c.31-.875.601-1.759.83-2.66.516-2.024.584-4.18.455-6.271-.248-4.013-1.353-7.823-3.725-11.226-1.459-2.093-3.432-3.321-5.77-4.332-1.456-.629-2.927-1.301-4.457-1.723z"
        fill="#89C5CC" />
      <path fill-rule="evenodd" clip-rule="evenodd"
        d="M526.207 197.616c-6.092-1.676-11.444 2.003-14.682 6.466-1.221 1.682-1.93 3.704-2.725 5.604-.256.61-.473 1.586-.883 2.079-.149.179-.387.192-.355.5a.486.486 0 00.295.41c.365.174 1.013-.085 1.383-.156 3.073-.589 5.401-2.165 7.52-4.295 1.313-1.32 2.654-2.697 3.64-4.271.602-.962 1.081-2.018 1.477-3.079.156-.418.313-.846.423-1.279.109-.43-.036-.713-.086-1.127 2.229-.194 4.577.232 6.433 1.579 1.717 1.246 2.936 3.077 3.367 5.074.111.519.164 1.048.166 1.574.001.345-.103.763-.022 1.096.198.809 1.12.558 1.213-.118.261-1.887-.33-4.016-1.365-5.662-1.305-2.077-3.376-3.729-5.799-4.395z"
        fill="#89C5CC" />
      <rect width="72.217" height="129.923" rx="3.869" transform="matrix(.96132 .27168 -.24517 .96862 559.115 92.43)" fill="#DDE3E9" />
      <path fill-rule="evenodd" clip-rule="evenodd"
        d="M562.894 220.689c3.571 1.013 7.166-.939 8.028-4.36.863-3.421-1.333-7.016-4.904-8.029-3.571-1.013-7.166.939-8.028 4.36-.863 3.421 1.333 7.016 4.904 8.029zM587.023 108.334a.867.867 0 001.071-.61.883.883 0 00-.628-1.071.866.866 0 00-1.07.61.882.882 0 00.627 1.071z"
        fill="#fff" />
      <rect width="9.209" height="1.725" rx=".863" transform="matrix(.96396 .2604 -.25514 .96562 590.414 107.44)" fill="#fff" />
      <g clip-path="url(#clip16)">
        <g clip-path="url(#clip17)">
          <rect width="59.355" height="23.116" rx="1.935" transform="matrix(.96121 .2722 -.24473 .96876 562.513 105.832)" fill="#fff" />
          <g clip-path="url(#clip18)" fill="#DDE3E9">
            <rect width="31.305" height="3.476" rx="1.451" transform="matrix(.96121 .2722 -.24473 .96876 564.996 113.751)" />
            <rect width="21.013" height="3.476" rx="1.451" transform="matrix(.96121 .2722 -.24473 .96876 563.579 119.363)" />
          </g>
          <path fill-rule="evenodd" clip-rule="evenodd" d="M611.201 135.651a3.269 3.269 0 004.083-2.358c.457-1.812-.629-3.693-2.426-4.201a3.268 3.268 0 00-4.083 2.358 3.502 3.502 0 002.426 4.201z" fill="#DDE3E9" />
          <path fill-rule="evenodd" clip-rule="evenodd" d="M611.675 133.777a1.4 1.4 0 001.749-1.011 1.5 1.5 0 00-1.039-1.8 1.4 1.4 0 00-1.75 1.01 1.5 1.5 0 001.04 1.801z" fill="#F2F2F2" />
        </g>
        <g clip-path="url(#clip19)">
          <rect width="59.355" height="18.312" rx="1.935" transform="matrix(.96121 .2722 -.24473 .96876 556.002 131.606)" fill="#fff" />
          <g clip-path="url(#clip20)" fill="#DDE3E9">
            <rect width="31.305" height="2.703" rx="1.352" transform="matrix(.96121 .2722 -.24473 .96876 572.809 141.978)" />
            <rect width="21.013" height="2.703" rx="1.352" transform="matrix(.96121 .2722 -.24473 .96876 571.707 146.343)" />
          </g>
          <path fill-rule="evenodd" clip-rule="evenodd" d="M562.104 148.863a5.603 5.603 0 006.999-4.043c.784-3.105-1.078-6.329-4.158-7.202a5.603 5.603 0 00-6.999 4.043c-.785 3.105 1.077 6.329 4.158 7.202z" fill="#C5CFD6" />
        </g>
        <g clip-path="url(#clip21)">
          <rect width="59.355" height="18.312" rx="1.935" transform="matrix(.96121 .2722 -.24473 .96876 550.751 152.391)" fill="#fff" />
          <g clip-path="url(#clip22)">
            <rect width="31.305" height="2.703" rx="1.352" transform="matrix(.96121 .2722 -.24473 .96876 553.612 158.814)" fill="#DDE3E9" />
            <rect width="21.013" height="2.703" rx="1.352" transform="matrix(.96121 .2722 -.24473 .96876 552.51 163.179)" fill="#AFB9C5" />
          </g>
          <path fill-rule="evenodd" clip-rule="evenodd" d="M600.149 179.399a3.269 3.269 0 004.083-2.358c.457-1.812-.629-3.693-2.426-4.202a3.268 3.268 0 00-4.082 2.359 3.5 3.5 0 002.425 4.201z" fill="#DDE3E9" />
          <path fill-rule="evenodd" clip-rule="evenodd" d="M600.623 177.525a1.401 1.401 0 001.75-1.011 1.502 1.502 0 00-1.04-1.801 1.402 1.402 0 00-1.75 1.011 1.502 1.502 0 001.04 1.801z" fill="#F2F2F2" />
        </g>
        <g clip-path="url(#clip23)">
          <rect width="59.355" height="18.312" rx="1.935" transform="matrix(.96121 .2722 -.24473 .96876 545.5 173.177)" fill="#fff" />
          <g clip-path="url(#clip24)" fill="#DDE3E9">
            <rect width="31.305" height="2.703" rx="1.352" transform="matrix(.96121 .2722 -.24473 .96876 562.307 183.549)" />
            <rect width="21.013" height="2.703" rx="1.352" transform="matrix(.96121 .2722 -.24473 .96876 561.204 187.914)" />
          </g>
          <path fill-rule="evenodd" clip-rule="evenodd" d="M551.602 190.434a5.602 5.602 0 006.998-4.043c.785-3.105-1.077-6.329-4.158-7.202a5.603 5.603 0 00-6.999 4.043c-.784 3.105 1.078 6.329 4.159 7.202z" fill="#C5CFD6" />
        </g>
      </g>
    </g>
    <path fill-rule="evenodd" clip-rule="evenodd" d="M549.11 317.681c.758 1.681 1.733 2.921 2.385 3.153 1.634.581 4.982-5.121 5.161-8.171.179-3.05-4.868-7.982-7.664-3.655-.97 1.501-1.162 3.315-.931 5.068l-6.076 7.051 4.511 3.172 2.614-6.618z"
      fill="#915B3C" />
    <path fill-rule="evenodd" clip-rule="evenodd"
      d="M547.862 306.119c-.055-.265-.006-.553.048-.821a7.83 7.83 0 01.199-.83c.169-.542.472-1.09.979-1.247.406-.126.843-.004 1.194.203.234.137.444.333.614.563.168.228.265.513.416.754.293-.507.669-.988 1.143-1.263.456-.265.942-.252 1.381-.03.45.227.799.624 1.045 1.11.061.122.12.246.171.375.043.108.082.23.156.313.082.094.165.065.271.029.125-.041.254-.064.382-.075.565-.048 1.147.178 1.489.685.158.234.276.526.301.832.022.272-.051.628.05.878.043.106.135.07.232.064.144-.01.289-.032.434-.039.203-.009.403.017.592.09.277.107.603.357.474.762-.048.152-.147.281-.231.41-.114.177-.229.354-.346.528a4.632 4.632 0 01-.278.38c-.053.065-.168.174-.181.268-.016.116.174.177.241.229.133.102.255.225.345.38.069.119.131.266.102.421a.557.557 0 01-.125.241c-.067.085-.079.148-.122.252.24.027.999.248.874.673-.042.141-.179.238-.283.309-.182.125-.38.216-.577.298-.41.172-.839.267-1.265.306.246.41.056.975-.406 1.067-.203.041-.395-.053-.554-.177-.059-.045-.131-.132-.185-.153-.029-.012-.07-.007-.106-.029-.242-.145-.469-.392-.664-.609a3.257 3.257 0 01-.739-1.419c-.034-.14-.073-.235-.182-.31-.095-.065-.204-.101-.299-.165-.254-.168-.403-.464-.584-.718-.21.342-.515.668-.819.895-.249.185-.488.069-.715-.059-.726-.41-1.369-.975-2.057-1.456.571.636 1.22 1.189 1.768 1.851.248.299-.105.365-.319.432-.353.11-.686.32-.981.58-.061-.705-.461-1.423-1.052-1.635-.652-.234-1.524.344-1.506 1.212.011.504.311.907.54 1.281-.404.115-.698.496-1.043.749-.171.124-.383.251-.58.198-.072-.02-.144-.067-.222-.045-.097.027-.153.093-.261.099-.429.024-.887-.323-.983-.816-.086-.445.219-.838.575-.978-.236-.374-.71-.975-.273-1.445-.663-.538-1.641-2.98-.201-3.249-.329-.682-.358-1.803.357-2.27.55-.36 1.27-.189 1.766.121z"
      fill="#184747" />
    <path fill-rule="evenodd" clip-rule="evenodd" d="M524.039 364.544s7.977 2.508 13.765 2.508c5.787 0 10.752-3.863 10.752-3.863s-7.807-2.575-12.858-2.575c-5.052 0-11.659 3.93-11.659 3.93z" fill="#1C9FA8" />
    <path fill-rule="evenodd" clip-rule="evenodd"
      d="M542.407 369.463a1.525 1.525 0 01-.129-.283c-.71-2.114-12.097-24.917-13.231-29.087h12.819c.863 3.17 4.745 23.063 5.291 27.031 1.724 6.261 5.273 26.536 5.726 27.94.476 1.478-2.206 3.017-2.92 1.201-1.137-2.891-3.846-10.888-5.053-15.772-1.131-4.578-2.052-8.697-2.503-11.03z"
      fill="#784931" />
    <path fill-rule="evenodd" clip-rule="evenodd"
      d="M531.92 372.247c-5.206 1.48-24.247 4.154-25.554 4.574-1.344.431-2.523-2.684-.861-3.359 2.644-1.074 9.928-3.555 14.345-4.567 3.552-.815 6.794-1.479 8.97-1.868-.184-6.874-1.027-23.371-.475-26.934h11.343c-.53 3.417-5.008 28.347-5.84 30.842-.264.891-1.052 1.284-1.928 1.312z"
      fill="#915B3C" />
    <path fill-rule="evenodd" clip-rule="evenodd"
      d="M505.811 374.787c-.131-1.127-.602-2.497-1.714-2.276-.59.117-1.689.562-1.689.562l2.172 13.846s1.671.225 1.615-.963c-.056-1.188-.074-1.977-.074-1.977l1.329-5.981c.15-.678-.245-1.336-.899-1.498l-.013-.003s-.615-.988-.721-1.661l-.006-.049zM551.114 396.2c-1.005 0-2.152.179-2.306 1.172-.019.122-.03.233-.03.329 0 .674.2 1.967.2 1.967h12.504s.487-1.811-.563-1.956c-1.05-.144-1.745-.261-1.745-.261l-4.824-2.418a1.194 1.194 0 00-1.656.657s-.972.51-1.58.51z"
      fill="#E4E4E4" />
    <path fill-rule="evenodd" clip-rule="evenodd" d="M528.382 340.093s7.498-2.412 14.188 0c1.552 7.961 5.323 11.121 5.986 23.327-7.538 4.211-16.849-3.004-24.608 1.103-2.217-5.744.887-19.578 4.434-24.43z" fill="#393939" />
    <path fill-rule="evenodd" clip-rule="evenodd"
      d="M556.936 354.336l-3.661-8.952-3.235 2.945 4.709 6.666c.603 3.364 1.1 4.92 1.492 4.668.331-.213.344-.597.356-.951.009-.275.017-.533.175-.676.36-.328 1.5.441 2.554 1.223 1.053.781 1.004.03.873-.407-.751-1.458-1.838-2.963-3.263-4.516zm-37.686-5.565c1.077-1.12 7.735-13.7 7.735-13.7l4.312 1.883s-8.956 12.799-9.578 13.55c-.808.975-.677 2.957-.588 4.3.014.208.027.4.035.572-.776.047-.956-.493-1.146-1.062-.215-.643-.443-1.324-1.554-1.237-.429.033-.851.11-1.263.184-1.423.259-2.73.496-3.839-1.141-.176-.259-.223-.971.548-1.178 1.92-.516 4.811-1.623 5.338-2.171z"
      fill="#915B3C" />
    <path fill-rule="evenodd" clip-rule="evenodd" d="M546.212 319.984l1.904.427c.126 9.974 2.816 20.149 8.07 30.525l-8.493 5.416c-4.231-13.37-5.414-25.79-1.481-36.368z" fill="#184747" />
    <path fill-rule="evenodd" clip-rule="evenodd" d="M529.803 341.883l15.91 6.871s-.368-17.513 3.24-28.085l-4.525-2.877c-6.101 5.196-10.033 13.139-14.625 24.091z" fill="#DDE3E9" />
    <path fill-rule="evenodd" clip-rule="evenodd" d="M544.325 317.752l-.003-.005s-15.092 7.351-24.368 28.685l7.754 3.349c.269-1 .558-1.978.864-2.933l10.414 4.497s5.086-21.514 7.229-28.413l.113-4.229s-1.132-.554-1.687-.819l-.313-.135-.003.003z"
      fill="#2F7661" />
    <path fill-rule="evenodd" clip-rule="evenodd" d="M528.542 346.941a67.33 67.33 0 014.711-11.169c-1.135 4.283-2.25 9.546-1.81 12.421l-2.901-1.252z" fill="#000" fill-opacity=".1" />
    <path fill-rule="evenodd" clip-rule="evenodd" d="M533.305 340.729l6.061-.469-.918 2.69-5.143-2.221z" fill="#fff" fill-opacity=".2" />
    <g opacity=".1">
      <path fill-rule="evenodd" clip-rule="evenodd" d="M586.644 378.05l-.003.017c.001-.005 0-.025.003-.017z" fill="#C5CFD6" />
      <path fill-rule="evenodd" clip-rule="evenodd" d="M586.641 378.059v.005c-.001-.005.004-.022 0-.005zM586.654 377.97l-.009.062.005-.03a5.08 5.08 0 01.004-.032z" fill="#C5CFD6" />
      <path fill-rule="evenodd" clip-rule="evenodd" d="M586.647 378.032l-.005.03c-.014.06.005-.03.005-.03zM586.642 378.059v0z" fill="#C5CFD6" />
      <path fill-rule="evenodd" clip-rule="evenodd" d="M586.639 378.067c-.003.012.016-.051 0 0zM586.641 378.059l.002-.003-.002.003z" fill="#C5CFD6" />
      <rect x="526" y="338.75" width="98.17" height="64.792" rx="4" transform="rotate(-14 526 338.75)" fill="#3CA7AE" />
      <path fill-rule="evenodd" clip-rule="evenodd" d="M567.05 348.683l-17.727 51.069 55.888-14.799-38.161-36.27z" fill="#000" fill-opacity=".2" />
      <path fill-rule="evenodd" clip-rule="evenodd" d="M598.249 353.525l-17.182 38.371 49.285-13.034-32.103-25.337z" fill="#000" fill-opacity=".2" />
      <path fill-rule="evenodd" clip-rule="evenodd" d="M608.396 350.91a9.327 9.327 0 10-4.513-18.099 9.327 9.327 0 004.513 18.099z" fill="#fff" />
    </g>
    <path fill-rule="evenodd" clip-rule="evenodd"
      d="M298.157 250.211c.539-2.977.799-9.961 2.693-11.91 1.221-1.256 3.368 4.048 3.877 5.008 1.971 3.712 3.463 7.642 4.859 11.612 2.519 7.161 2.671 14.626 1.62 22.382-.541 3.99-1.414 8.199-3.781 11.745-1.09 1.633-2.844 2.723-3.973 4.229-1.316 1.754-.713.575-.648 2.664.09 2.899 1.265 6.089 2.021 8.839 3.468 12.627 28.452 75.918 35.314 87.028a.876.876 0 01-1.536.823c-3.791-6.451-23.616-54.461-29.466-70.491-5.85-16.03-10.786-30.312-11.606-36.484-.995-7.488-.853-17.189-.515-24.83.157-3.549.5-7.077 1.141-10.615z"
      fill="#A36633" />
    <path fill-rule="evenodd" clip-rule="evenodd"
      d="M347.994 318.835c2.718-5.002 9.887-2.01 7.564 2.786-1.285 2.651-3.731 3.229-5.606 2.565-.34 1.313-.608 2.641-.921 3.807a152.13 152.13 0 00-2.444 10.664c-1.424 7.396-2.116 14.783-3.018 22.153-.891 7.273-1.738 14.558-2.223 21.791-.41 6.127-1.325 13.563.308 19.188-4.035-11.631-3.846-24.943-2.183-37.934 1.65-12.885 3.809-27.144 9.996-39.873-1.712-.856-2.737-2.823-1.473-5.147z"
      fill="#A36633" />
    <path fill-rule="evenodd" clip-rule="evenodd"
      d="M256.766 332.085c2.547-.797 8.832 2.112 11.697 2.974 3.405 1.024 6.672 2.306 9.876 3.762 6.899 3.136 13.523 6.841 19.706 11.083 10.079 6.917 19.25 14.632 27.578 23.548 5.098 5.459 9.659 11.494 13.707 17.738.764 1.178 7.023 10.063 5.123 11.384-1.708 1.189-4.944-6.646-5.549-7.625-6.828-11.05-15.485-20.748-25.13-29.484-2.101-1.903-4.407-4.374-6.93-5.756-1.817-.995-.513-.999-2.636-.625-1.822.321-3.55 1.379-5.467 1.607-4.164.497-8.264-.623-12.025-1.939-7.311-2.558-13.84-6.046-19.07-11.487-2.9-3.016-5.723-6.1-8.144-9.508-.626-.88-4.377-5.159-2.736-5.672z"
      fill="#1C9FA8" />
    <path fill-rule="evenodd" clip-rule="evenodd"
      d="M223.311 244.768c16.111 9.617 31.347 21.46 44.097 34.85 7.725 8.113 14.718 16.923 21.661 25.67 10.752 13.542 21.336 27.17 29.976 42.151 8.69 15.067 19.399 32.088 21.471 49.875-4.938-16.584-15.73-31.359-23.925-46.369-3.912-7.166-8.207-14.042-12.717-20.843-4.376-6.597-9.251-12.892-14.024-19.212a907.204 907.204 0 00-7.039-9.185c-.705-.91-2.306-3.865-3.35-4.194-1.05-.332-4.757 1.238-6.134 1.31-2.773.145-5.631-.212-8.288-.777-5.092-1.084-10.175-3.317-14.572-5.838-10.174-5.832-17.902-15.386-22.955-25.64-.981-1.991-8.338-25.096-9.872-24.669.038-.134.07-.268.095-.403a423.577 423.577 0 015.576 3.274z"
      fill="#1C9FA8" />
    <path fill-rule="evenodd" clip-rule="evenodd"
      d="M343.308 248.448c.044-.253.29-1.977-.114-1.664.821-.637-.541 2.043 1.229-.09-.596 1.498.635 2.394 1.285 3.649 1.057 2.038 1.712 4.265 2.307 6.489.941 3.516 1.516 7.111 1.583 10.804.144 8.049-1.993 16.988-6.207 24.272-2.08 3.596-4.758 5.851-7.81 8.603-1.927 1.738-1.566 2.897-1.736 5.514-.352 5.45-.669 10.863-.661 16.302.01 6.496.098 12.957.37 19.429.918 21.801 3.638 43.461 9.757 64.148-5.695-11.097-8.702-24.023-10.554-36.472-1.349-9.071-1.789-18.265-1.969-27.499-.044-2.237.096-5.218-.534-7.383-.442-1.517-1.892-2.439-2.983-3.71-4.25-4.947-7.353-11.357-9.006-17.703-1.822-6.996.602-11.955 6.743-16.295 2.245-1.587 5.369-3.071 7.097-5.182 1.884-2.3 1.155-6.238 1.419-9.149.708-7.819 2.229-15.759 4.744-23.351a47.75 47.75 0 012.543-6.158c.626-1.265 2.277-3.284 2.497-4.554z"
      fill="#2F6267" />
    <path opacity=".6" fill-rule="evenodd" clip-rule="evenodd" d="M320.315 185.313l-23.029 23.433 23.029 23.433 23.029-23.433-23.029-23.433z" fill="#E9B58F" />
    <path opacity=".6" fill-rule="evenodd" clip-rule="evenodd" d="M418 346l-37 37.5 37 37.5 37-37.5-37-37.5zM378.756 145L363 161.161l15.756 16.161 15.757-16.161L378.756 145z" fill="#1C9FA8" />
    <path opacity=".6" fill-rule="evenodd" clip-rule="evenodd" d="M481.757 318L466 334.161l15.757 16.161 15.756-16.161L481.757 318z" fill="#E9B58F" />
  </g>
  <defs>
    <clipPath id="clip0">
      <path fill="#fff" transform="matrix(.93401 -.35101 .33056 .9418 939.129 208.157)" d="M0 0h75.001v194.955H0z" />
    </clipPath>
    <clipPath id="clip1">
      <path fill="#fff" transform="matrix(.93401 -.35101 .33056 .9418 950.138 213.301)" d="M0 0h57.443v76.413H0z" />
    </clipPath>
    <clipPath id="clip2">
      <path fill="#fff" transform="matrix(.93331 -.3534 .32848 .94271 685.622 208.612)" d="M0 0h237.124v280.332H0z" />
    </clipPath>
    <clipPath id="clip3">
      <path fill="#fff" transform="matrix(.93331 -.3534 .32848 .94271 685.622 208.612)" d="M0 0h237.124v46.722H0z" />
    </clipPath>
    <clipPath id="clip4">
      <path fill="#fff" transform="matrix(.93331 -.3534 .32848 .94271 694.289 220.288)" d="M0 0h208.766v18.689H0z" />
    </clipPath>
    <clipPath id="clip5">
      <path fill="#fff" transform="matrix(.93331 -.3534 .32848 .94271 703.582 260.155)" d="M0 0h237.124v38.769H0z" />
    </clipPath>
    <clipPath id="clip6">
      <path fill="#fff" transform="matrix(.93331 -.3534 .32848 .94271 711.465 269.581)" d="M0 0h208.766v15.508H0z" />
    </clipPath>
    <clipPath id="clip7">
      <path fill="#fff" transform="matrix(.93331 -.3534 .32848 .94271 718.929 304.2)" d="M0 0h237.124v38.769H0z" />
    </clipPath>
    <clipPath id="clip8">
      <path fill="#fff" transform="matrix(.93331 -.3534 .32848 .94271 726.812 313.626)" d="M0 0h208.766v15.508H0z" />
    </clipPath>
    <clipPath id="clip9">
      <path fill="#fff" transform="matrix(.93331 -.3534 .32848 .94271 764.972 436.337)" d="M0 0h237.124v38.769H0z" />
    </clipPath>
    <clipPath id="clip10">
      <path fill="#fff" transform="matrix(.93331 -.3534 .32848 .94271 772.854 445.763)" d="M0 0h208.766v15.508H0z" />
    </clipPath>
    <clipPath id="clip11">
      <path fill="#fff" transform="matrix(.93331 -.3534 .32848 .94271 749.624 392.291)" d="M0 0h237.124v38.769H0z" />
    </clipPath>
    <clipPath id="clip12">
      <path fill="#fff" transform="matrix(.93331 -.3534 .32848 .94271 757.507 401.717)" d="M0 0h208.766v15.508H0z" />
    </clipPath>
    <clipPath id="clip13">
      <path fill="#fff" transform="matrix(.93331 -.3534 .32848 .94271 734.277 348.246)" d="M0 0h237.124v38.769H0z" />
    </clipPath>
    <clipPath id="clip14">
      <path fill="#fff" transform="matrix(.93331 -.3534 .32848 .94271 742.16 357.672)" d="M0 0h208.766v15.508H0z" />
    </clipPath>
    <clipPath id="clip15">
      <path fill="#fff" transform="matrix(-.93187 -.36279 -.3612 .9325 1453.99 168.552)" d="M0 0h222.819v17.011H0z" />
    </clipPath>
    <clipPath id="clip16">
      <path fill="#fff" transform="matrix(.96121 .2722 -.24473 .96876 562.513 105.832)" d="M0 0h59.247v87.539H0z" />
    </clipPath>
    <clipPath id="clip17">
      <path fill="#fff" transform="matrix(.96121 .2722 -.24473 .96876 562.513 105.832)" d="M0 0h59.247v23.172H0z" />
    </clipPath>
    <clipPath id="clip18">
      <path fill="#fff" transform="matrix(.96121 .2722 -.24473 .96876 564.996 113.751)" d="M0 0h31.305v9.269H0z" />
    </clipPath>
    <clipPath id="clip19">
      <path fill="#fff" transform="matrix(.96121 .2722 -.24473 .96876 556.002 131.606)" d="M0 0h59.247v18.023H0z" />
    </clipPath>
    <clipPath id="clip20">
      <path fill="#fff" transform="matrix(.96121 .2722 -.24473 .96876 572.809 141.978)" d="M0 0h31.305v7.209H0z" />
    </clipPath>
    <clipPath id="clip21">
      <path fill="#fff" transform="matrix(.96121 .2722 -.24473 .96876 550.751 152.391)" d="M0 0h59.247v18.023H0z" />
    </clipPath>
    <clipPath id="clip22">
      <path fill="#fff" transform="matrix(.96121 .2722 -.24473 .96876 553.612 158.814)" d="M0 0h31.305v7.209H0z" />
    </clipPath>
    <clipPath id="clip23">
      <path fill="#fff" transform="matrix(.96121 .2722 -.24473 .96876 545.5 173.177)" d="M0 0h59.247v18.023H0z" />
    </clipPath>
    <clipPath id="clip24">
      <path fill="#fff" transform="matrix(.96121 .2722 -.24473 .96876 562.307 183.549)" d="M0 0h31.305v7.209H0z" />
    </clipPath>
  </defs>
</svg>