<svg width="1440" height="290" viewBox="130 75 1440 290" fill="none" xmlns="http://www.w3.org/2000/svg">
  <g opacity="0.9">
    <path opacity="0.05" fill-rule="evenodd" clip-rule="evenodd" d="M819.725 478.768C809.619 554.147 515.889 516.922 285.065 411.776C54.2403 306.631 -17.7089 145.583 117.629 112.025C252.968 78.4669 829.831 403.389 819.725 478.768Z" fill="#E9B58F" />
    <path opacity="0.03" fill-rule="evenodd" clip-rule="evenodd" d="M1550.73 340.531C1559.61 403.343 1344.32 444.312 1159.02 415.721C973.718 387.129 888.71 275.475 977.133 215.981C1065.56 156.487 1541.86 277.72 1550.73 340.531Z" fill="#1C9FA8" />
    <g opacity="0.2">
      <rect width="351.793" height="342.838" rx="3.86902" transform="matrix(0.933273 -0.353531 0.328361 0.942766 655 174.37)" fill="#F2F2F2" />
      <rect width="73.6612" height="80.4153" rx="3.86902" transform="matrix(0.933289 -0.353478 0.328412 0.942744 908.144 122.739)" fill="white" />
      <path fill-rule="evenodd" clip-rule="evenodd"
        d="M957.847 153.722C966.375 150.578 970.857 141.232 967.856 132.847C964.856 124.461 955.51 120.212 946.982 123.355C938.453 126.498 933.972 135.844 936.972 144.23C939.972 152.615 949.318 156.865 957.847 153.722Z" fill="#DDE3E9" />
      <rect width="51.1199" height="5.97844" rx="1.6927" transform="matrix(0.936884 -0.342973 0.338159 0.938995 935.464 166.498)" fill="#DDE3E9" />
      <rect width="34.7895" height="5.99079" rx="1.6927" transform="matrix(0.936712 -0.343484 0.337678 0.939183 946.598 173.265)" fill="#DDE3E9" />
      <path d="M656.299 172.05C655.581 170.043 656.621 167.818 658.62 167.081L972.626 51.3346C974.626 50.5975 976.828 51.6275 977.546 53.6352L984.835 74.0399L663.588 192.455L656.299 172.05Z" fill="#C5CFD6" />
      <path fill-rule="evenodd" clip-rule="evenodd"
        d="M673.676 179.3C675.803 178.52 676.915 176.184 676.16 174.082C675.404 171.98 673.068 170.908 670.941 171.688C668.814 172.468 667.702 174.805 668.458 176.907C669.213 179.009 671.549 180.081 673.676 179.3Z" fill="#F2F2F2" />
      <path fill-rule="evenodd" clip-rule="evenodd"
        d="M685.155 175.123C687.282 174.342 688.393 172.006 687.638 169.904C686.883 167.802 684.546 166.73 682.419 167.51C680.293 168.29 679.181 170.627 679.936 172.729C680.691 174.831 683.028 175.903 685.155 175.123Z" fill="#F2F2F2" />
      <path fill-rule="evenodd" clip-rule="evenodd"
        d="M696.632 170.945C698.759 170.165 699.871 167.828 699.116 165.726C698.36 163.624 696.024 162.553 693.897 163.333C691.77 164.113 690.658 166.449 691.414 168.551C692.169 170.653 694.505 171.725 696.632 170.945Z" fill="#F2F2F2" />
      <g clip-path="url(#clip0)">
        <rect width="75.0006" height="194.955" rx="3.86902" transform="matrix(0.934012 -0.351011 0.330565 0.941803 939.129 208.157)" fill="white" />
        <g clip-path="url(#clip1)">
          <rect width="57.4433" height="12.5743" rx="1.93451" transform="matrix(0.934012 -0.351011 0.330565 0.941803 950.138 213.301)" fill="#DDE3E9" />
          <rect width="57.4433" height="12.0907" rx="1.93451" transform="matrix(0.934012 -0.351011 0.330565 0.941803 955.573 228.787)" fill="#AFB9C5" />
          <rect width="57.4433" height="12.0907" rx="1.93451" transform="matrix(0.934012 -0.351011 0.330565 0.941803 960.849 243.818)" fill="#DDE3E9" />
          <rect width="57.4433" height="12.0907" rx="1.93451" transform="matrix(0.934012 -0.351011 0.330565 0.941803 971.4 273.88)" fill="#DDE3E9" />
          <rect width="57.4433" height="12.0907" rx="1.93451" transform="matrix(0.934012 -0.351011 0.330565 0.941803 966.125 258.849)" fill="#C5CFD6" />
        </g>
      </g>
      <g clip-path="url(#clip2)">
        <g clip-path="url(#clip3)">
          <rect width="236.816" height="46.7305" rx="1.93451" transform="matrix(0.933312 -0.3534 0.328483 0.942713 685.622 208.612)" fill="white" />
          <g clip-path="url(#clip4)">
            <rect width="208.766" height="7.0083" rx="1.45088" transform="matrix(0.933312 -0.3534 0.328483 0.942713 694.289 220.288)" fill="#DDE3E9" />
            <rect width="140.13" height="7.0083" rx="1.45088" transform="matrix(0.933312 -0.3534 0.328483 0.942713 698.125 231.299)" fill="#DDE3E9" />
          </g>
          <path fill-rule="evenodd" clip-rule="evenodd"
            d="M845.78 176.514C847.525 175.853 848.442 173.888 847.828 172.126C847.214 170.363 845.301 169.47 843.556 170.131C841.811 170.792 840.894 172.756 841.509 174.519C842.123 176.281 844.035 177.174 845.78 176.514Z" fill="#DDE3E9" />
          <path fill-rule="evenodd" clip-rule="evenodd"
            d="M845.145 174.69C845.893 174.407 846.285 173.565 846.022 172.81C845.759 172.054 844.939 171.671 844.192 171.955C843.444 172.238 843.051 173.08 843.314 173.835C843.577 174.59 844.397 174.973 845.145 174.69Z" fill="#F2F2F2" />
        </g>
        <g clip-path="url(#clip5)">
          <rect width="236.816" height="38.8615" rx="1.93451" transform="matrix(0.933312 -0.3534 0.328483 0.942713 703.582 260.155)" fill="white" />
          <g clip-path="url(#clip6)">
            <rect width="208.766" height="5.8154" rx="1.45088" transform="matrix(0.933312 -0.3534 0.328483 0.942713 711.465 269.581)" fill="#DDE3E9" />
            <rect width="140.13" height="5.8154" rx="1.45088" transform="matrix(0.933312 -0.3534 0.328483 0.942713 714.648 278.718)" fill="#DDE3E9" />
          </g>
          <path fill-rule="evenodd" clip-rule="evenodd"
            d="M862.448 224.347C864.193 223.686 865.109 221.722 864.495 219.959C863.881 218.197 861.969 217.303 860.224 217.964C858.479 218.625 857.562 220.589 858.176 222.352C858.79 224.115 860.703 225.008 862.448 224.347Z" fill="#DDE3E9" />
          <path fill-rule="evenodd" clip-rule="evenodd"
            d="M861.812 222.523C862.56 222.24 862.953 221.398 862.69 220.643C862.427 219.888 861.607 219.505 860.859 219.788C860.111 220.071 859.718 220.913 859.981 221.668C860.245 222.424 861.064 222.807 861.812 222.523Z" fill="#F2F2F2" />
        </g>
        <g clip-path="url(#clip7)">
          <rect width="236.816" height="38.8615" rx="1.93451" transform="matrix(0.933312 -0.3534 0.328483 0.942713 718.929 304.2)" fill="white" />
          <g clip-path="url(#clip8)">
            <rect width="208.766" height="5.8154" rx="1.45088" transform="matrix(0.933312 -0.3534 0.328483 0.942713 726.812 313.626)" fill="#DDE3E9" />
            <rect width="140.13" height="5.8154" rx="1.45088" transform="matrix(0.933312 -0.3534 0.328483 0.942713 729.996 322.764)" fill="#DDE3E9" />
          </g>
          <path fill-rule="evenodd" clip-rule="evenodd"
            d="M877.795 268.392C879.54 267.732 880.457 265.767 879.842 264.005C879.228 262.242 877.316 261.349 875.571 262.01C873.826 262.67 872.909 264.635 873.523 266.397C874.137 268.16 876.05 269.053 877.795 268.392Z" fill="#DDE3E9" />
          <path fill-rule="evenodd" clip-rule="evenodd"
            d="M877.159 266.569C877.907 266.286 878.3 265.444 878.037 264.688C877.774 263.933 876.954 263.55 876.206 263.833C875.458 264.117 875.065 264.958 875.329 265.714C875.592 266.469 876.411 266.852 877.159 266.569Z" fill="#AFB9C5" />
        </g>
        <g clip-path="url(#clip9)">
          <rect width="236.816" height="38.8615" rx="1.93451" transform="matrix(0.933312 -0.3534 0.328483 0.942713 764.972 436.337)" fill="white" />
          <g clip-path="url(#clip10)">
            <rect width="208.766" height="5.8154" rx="1.45088" transform="matrix(0.933312 -0.3534 0.328483 0.942713 772.854 445.763)" fill="#DDE3E9" />
            <rect width="140.13" height="5.8154" rx="1.45088" transform="matrix(0.933312 -0.3534 0.328483 0.942713 776.038 454.9)" fill="#DDE3E9" />
          </g>
          <path fill-rule="evenodd" clip-rule="evenodd"
            d="M923.837 400.529C925.582 399.868 926.499 397.904 925.885 396.141C925.271 394.378 923.358 393.485 921.613 394.146C919.868 394.807 918.951 396.771 919.566 398.534C920.18 400.296 922.092 401.19 923.837 400.529Z" fill="#DDE3E9" />
          <path fill-rule="evenodd" clip-rule="evenodd"
            d="M923.202 398.705C923.95 398.422 924.343 397.58 924.079 396.825C923.816 396.069 922.997 395.687 922.249 395.97C921.501 396.253 921.108 397.095 921.371 397.85C921.634 398.606 922.454 398.988 923.202 398.705Z" fill="#F2F2F2" />
        </g>
        <g clip-path="url(#clip11)">
          <rect width="236.816" height="38.8615" rx="1.93451" transform="matrix(0.933312 -0.3534 0.328483 0.942713 749.624 392.291)" fill="white" />
          <g clip-path="url(#clip12)">
            <rect width="208.766" height="5.8154" rx="1.45088" transform="matrix(0.933312 -0.3534 0.328483 0.942713 757.507 401.717)" fill="#DDE3E9" />
            <rect width="140.13" height="5.8154" rx="1.45088" transform="matrix(0.933312 -0.3534 0.328483 0.942713 760.69 410.854)" fill="#DDE3E9" />
          </g>
          <path fill-rule="evenodd" clip-rule="evenodd"
            d="M908.49 356.483C910.235 355.823 911.151 353.858 910.537 352.096C909.923 350.333 908.011 349.44 906.266 350.1C904.521 350.761 903.604 352.726 904.218 354.488C904.832 356.251 906.745 357.144 908.49 356.483Z" fill="#DDE3E9" />
          <path fill-rule="evenodd" clip-rule="evenodd"
            d="M907.854 354.66C908.602 354.377 908.995 353.535 908.732 352.779C908.469 352.024 907.649 351.641 906.901 351.924C906.153 352.207 905.76 353.049 906.023 353.805C906.287 354.56 907.106 354.943 907.854 354.66Z" fill="#F2F2F2" />
        </g>
        <g clip-path="url(#clip13)">
          <rect width="236.816" height="38.8615" rx="1.93451" transform="matrix(0.933312 -0.3534 0.328483 0.942713 734.277 348.246)" fill="white" />
          <g clip-path="url(#clip14)">
            <rect width="208.766" height="5.8154" rx="1.45088" transform="matrix(0.933312 -0.3534 0.328483 0.942713 742.16 357.672)" fill="#DDE3E9" />
            <rect width="140.13" height="5.8154" rx="1.45088" transform="matrix(0.933312 -0.3534 0.328483 0.942713 745.343 366.809)" fill="#DDE3E9" />
          </g>
          <path fill-rule="evenodd" clip-rule="evenodd"
            d="M893.142 312.438C894.888 311.777 895.804 309.813 895.19 308.05C894.576 306.288 892.663 305.394 890.918 306.055C889.173 306.716 888.257 308.68 888.871 310.443C889.485 312.206 891.397 313.099 893.142 312.438Z" fill="#DDE3E9" />
          <path fill-rule="evenodd" clip-rule="evenodd"
            d="M892.507 310.614C893.255 310.331 893.648 309.489 893.385 308.734C893.121 307.978 892.302 307.596 891.554 307.879C890.806 308.162 890.413 309.004 890.676 309.759C890.94 310.515 891.759 310.898 892.507 310.614Z" fill="#F2F2F2" />
        </g>
      </g>
    </g>
    <g opacity="0.7">
      <rect opacity="0.1" width="313.963" height="367.864" rx="7.70387" transform="matrix(-0.931873 -0.362785 -0.361191 0.932492 1522.77 116.604)" fill="#A36633" />
      <path d="M1519.99 123.788C1521.52 119.82 1519.55 115.353 1515.59 113.809L1237.37 5.49775C1233.41 3.95419 1228.95 5.91918 1227.41 9.88669L1219.83 29.4712L1512.4 143.372L1519.99 123.788Z" fill="#A36633" />
      <path fill-rule="evenodd" clip-rule="evenodd"
        d="M1502.96 129.431C1500.77 128.578 1499.68 126.111 1500.53 123.921C1501.38 121.73 1503.84 120.646 1506.04 121.499C1508.23 122.352 1509.31 124.819 1508.47 127.009C1507.62 129.2 1505.15 130.284 1502.96 129.431Z" fill="#F2F2F2" />
      <path fill-rule="evenodd" clip-rule="evenodd"
        d="M1491.06 124.797C1488.87 123.944 1487.78 121.477 1488.63 119.287C1489.48 117.097 1491.94 116.013 1494.13 116.866C1496.32 117.719 1497.41 120.186 1496.57 122.376C1495.72 124.566 1493.25 125.65 1491.06 124.797Z" fill="#F2F2F2" />
      <path fill-rule="evenodd" clip-rule="evenodd"
        d="M1479.16 120.164C1476.97 119.311 1475.88 116.844 1476.73 114.654C1477.58 112.464 1480.04 111.379 1482.23 112.232C1484.42 113.085 1485.51 115.552 1484.66 117.743C1483.82 119.933 1481.35 121.017 1479.16 120.164Z" fill="#F2F2F2" />
      <rect width="279.501" height="298.757" rx="3.85194" transform="matrix(-0.931873 -0.362785 -0.361191 0.932492 1490.77 152.066)" fill="white" />
      <g clip-path="url(#clip15)">
        <rect width="222.819" height="6.21967" rx="2.88895" transform="matrix(-0.931873 -0.362785 -0.361191 0.932492 1453.99 168.552)" fill="#DDE3E9" />
        <rect width="149.563" height="6.21967" rx="2.88895" transform="matrix(-0.931873 -0.362785 -0.361191 0.932492 1450.25 178.219)" fill="#DDE3E9" />
      </g>
      <rect width="222.819" height="6.21958" rx="2.88895" transform="matrix(-0.931873 -0.362785 -0.361191 0.932492 1445.93 189.372)" fill="#DDE3E9" />
      <rect width="222.819" height="6.21958" rx="2.88895" transform="matrix(-0.931873 -0.362785 -0.361191 0.932492 1445.93 189.372)" fill="#DDE3E9" />
      <rect width="222.819" height="6.21961" rx="2.88895" transform="matrix(-0.931873 -0.362785 -0.361191 0.932492 1441.7 200.278)" fill="#DDE3E9" />
      <rect width="222.819" height="6.21959" rx="2.88895" transform="matrix(-0.931873 -0.362785 -0.361191 0.932492 1437.48 211.184)" fill="#DDE3E9" />
      <rect width="222.819" height="6.21962" rx="2.88895" transform="matrix(-0.931873 -0.362785 -0.361191 0.932492 1433.26 222.089)" fill="#DDE3E9" />
      <rect width="222.819" height="6.21967" rx="2.88895" transform="matrix(-0.931873 -0.362785 -0.361191 0.932492 1429.03 232.995)" fill="#DDE3E9" />
      <rect width="222.819" height="6.21969" rx="2.88895" transform="matrix(-0.931873 -0.362785 -0.361191 0.932492 1424.81 243.9)" fill="#DDE3E9" />
      <rect width="107.5" height="6.37911" rx="2.88895" transform="matrix(-0.931873 -0.362785 -0.361191 0.932492 1420.58 254.806)" fill="#DDE3E9" />
      <rect width="222.819" height="6.21967" rx="2.88895" transform="matrix(-0.931873 -0.362785 -0.361191 0.932492 1416.36 265.711)" fill="#DDE3E9" />
      <rect width="222.819" height="6.21967" rx="2.88895" transform="matrix(-0.931873 -0.362785 -0.361191 0.932492 1412.13 276.617)" fill="#DDE3E9" />
      <rect width="222.819" height="6.21965" rx="2.88895" transform="matrix(-0.931873 -0.362785 -0.361191 0.932492 1407.91 287.523)" fill="#DDE3E9" />
      <rect width="222.819" height="6.21965" rx="2.88895" transform="matrix(-0.931873 -0.362785 -0.361191 0.932492 1403.69 298.428)" fill="#DDE3E9" />
      <rect width="222.819" height="6.21967" rx="2.88895" transform="matrix(-0.931873 -0.362785 -0.361191 0.932492 1399.46 309.334)" fill="#DDE3E9" />
      <rect width="222.819" height="6.21961" rx="2.88895" transform="matrix(-0.931873 -0.362785 -0.361191 0.932492 1395.24 320.24)" fill="#DDE3E9" />
      <rect width="116.296" height="6.37915" rx="2.88895" transform="matrix(-0.931873 -0.362785 -0.361191 0.932492 1391.01 331.145)" fill="#DDE3E9" />
      <rect width="222.819" height="6.21964" rx="2.88895" transform="matrix(-0.931873 -0.362785 -0.361191 0.932492 1386.79 342.051)" fill="#DDE3E9" />
      <rect width="222.819" height="6.21967" rx="2.88895" transform="matrix(-0.931873 -0.362785 -0.361191 0.932492 1382.57 352.956)" fill="#DDE3E9" />
      <rect width="222.819" height="6.21969" rx="2.88895" transform="matrix(-0.931873 -0.362785 -0.361191 0.932492 1378.34 363.862)" fill="#DDE3E9" />
      <rect width="102.614" height="6.37912" rx="2.88895" transform="matrix(-0.931873 -0.362785 -0.361191 0.932492 1374.12 374.768)" fill="#DDE3E9" />
    </g>
    <path fill-rule="evenodd" clip-rule="evenodd"
      d="M1145.25 315.879C1146.83 316.551 1148.32 316.774 1148.97 316.506C1150.6 315.835 1149.89 309.655 1148.24 307.411C1146.59 305.166 1139.73 305.052 1140.07 309.91C1140.18 311.596 1141.1 312.987 1142.31 314.057L1141.66 322.974L1147.07 322.214L1145.25 315.879Z"
      fill="#B28B67" />
    <path fill-rule="evenodd" clip-rule="evenodd"
      d="M1145.73 305.067C1144.96 304.946 1143.88 305.02 1143.43 305.135C1143.6 304.486 1143.61 303.788 1143.43 303.134C1143.26 302.499 1142.89 301.989 1142.54 301.45C1142.38 301.201 1142.21 300.956 1141.97 300.782C1141.73 300.605 1141.44 300.506 1141.15 300.48C1140.85 300.454 1140.55 300.502 1140.27 300.603C1140.14 300.648 1140.04 300.723 1139.92 300.773C1139.79 300.824 1139.72 300.752 1139.61 300.685C1139.36 300.522 1139.02 300.473 1138.73 300.478C1138.4 300.485 1138.08 300.579 1137.79 300.727C1137.51 300.87 1137.25 301.076 1137.07 301.347C1136.99 301.467 1136.92 301.601 1136.88 301.744C1136.86 301.803 1136.87 301.836 1136.81 301.864C1136.76 301.89 1136.7 301.899 1136.65 301.924C1136.17 302.168 1135.79 302.623 1135.62 303.162C1135.52 303.476 1135.53 304.004 1135.63 304.584C1135.73 305.163 1136.47 306.606 1137.04 307.091C1137.55 307.523 1138.24 307.758 1138.88 307.813C1138.54 308.344 1138.34 308.972 1138.22 309.6C1138.09 310.283 1138.05 310.979 1138.1 311.676C1138.14 312.338 1138.24 313.032 1138.48 313.651C1138.71 314.231 1139.09 314.679 1139.64 314.919C1139.9 315.029 1140.17 315.101 1140.44 315.163C1140.7 315.225 1140.97 315.283 1141.24 315.3C1141.75 315.333 1142.32 315.235 1142.65 314.785C1142.77 314.623 1142.9 314.423 1142.97 314.234C1143 314.167 1143.02 314.123 1142.96 314.068C1142.9 314.002 1142.81 313.957 1142.73 313.91C1142.3 313.637 1142 313.234 1141.87 312.724C1141.73 312.206 1141.78 311.506 1142.26 311.204C1142.85 310.832 1143.6 311.059 1144.2 311.283C1144.32 310.407 1144.71 309.58 1145.42 309.085C1146.22 308.538 1147.19 308.35 1148.01 307.86C1148.23 307.733 1148.44 307.591 1148.58 307.373C1148.64 307.282 1148.71 307.165 1148.72 307.053C1148.74 306.906 1148.63 306.801 1148.55 306.7C1148.09 306.169 1146.5 305.187 1145.73 305.067Z"
      fill="#184747" />
    <path fill-rule="evenodd" clip-rule="evenodd" d="M1143.6 340.851L1160.51 369.048L1173.2 392.886H1175.93L1154.68 340.851L1143.6 340.851Z" fill="#997659" />
    <path fill-rule="evenodd" clip-rule="evenodd"
      d="M1173.54 391.94C1172.49 391.94 1171.25 392.138 1171.15 393.182C1171.15 393.226 1171.14 393.268 1171.14 393.307C1171.14 393.921 1171.35 395.099 1171.35 395.099C1172.06 395.099 1184.19 395.099 1184.19 395.099C1184.19 395.099 1184.69 393.449 1183.61 393.318C1182.53 393.186 1181.82 393.08 1181.82 393.08L1176.58 390.749C1176.06 390.521 1175.46 390.761 1175.25 391.281L1175.17 391.476C1175.17 391.476 1174.17 391.94 1173.54 391.94Z"
      fill="#E4E4E4" />
    <path fill-rule="evenodd" clip-rule="evenodd"
      d="M1169.67 389.069L1174.94 387.48C1174.94 387.48 1171.48 377.161 1166.46 364.768C1161.43 352.376 1155.66 340.851 1155.66 340.851H1140.78C1140.78 340.851 1147.2 355.43 1154.38 367.345C1161.56 379.26 1169.67 389.069 1169.67 389.069Z"
      fill="#A26638" />
    <path fill-rule="evenodd" clip-rule="evenodd"
      d="M1142.48 340.851C1140.89 350.759 1137.81 363.419 1137.52 363.809C1137.32 364.07 1130.35 366.4 1116.59 370.8L1117.18 373.202C1133.59 370.842 1142.23 369.011 1143.11 367.709C1144.44 365.757 1151.05 350.33 1153.61 340.851H1142.48Z"
      fill="#B28B67" />
    <path fill-rule="evenodd" clip-rule="evenodd"
      d="M1121.43 368.724L1122.47 372.592C1134.74 373.665 1142.26 372.89 1145.02 370.266C1147.79 367.643 1150.94 357.838 1154.48 340.851H1140.29C1138.05 354.761 1136.79 362.008 1136.53 362.592C1136.26 363.176 1131.23 365.22 1121.43 368.724Z"
      fill="#C9844F" />
    <path fill-rule="evenodd" clip-rule="evenodd"
      d="M1117.46 371.806C1117.28 370.777 1116.87 369.595 1115.83 369.672C1115.78 369.676 1115.74 369.681 1115.7 369.688C1115.09 369.795 1113.96 370.201 1113.96 370.201C1114.09 370.902 1116.19 382.809 1116.19 382.809C1116.19 382.809 1117.91 383.013 1117.85 381.932C1117.79 380.85 1117.78 380.131 1117.78 380.131L1119.17 374.584C1119.3 374.037 1118.96 373.484 1118.41 373.363L1118.2 373.319C1118.2 373.319 1117.57 372.419 1117.46 371.806Z"
      fill="#E4E4E4" />
    <path fill-rule="evenodd" clip-rule="evenodd"
      d="M1159.6 320.84L1152.38 326.213L1155.7 328.899L1160.66 322.909C1163.54 321.665 1164.82 320.871 1164.51 320.525C1164.25 320.234 1163.91 320.294 1163.59 320.35C1163.34 320.393 1163.11 320.433 1162.94 320.302C1162.57 320.003 1163.02 318.714 1163.49 317.508C1163.97 316.303 1163.31 316.495 1162.94 316.71C1161.8 317.74 1160.69 319.116 1159.6 320.84ZM1168.31 325.73L1165.14 328.096L1165.82 331.507C1165.82 331.507 1167.82 329.592 1169.66 328.791C1172.01 327.769 1172.92 327.111 1173.9 325.428C1174.43 324.527 1174.74 322.82 1174.06 322.374C1173.79 322.203 1172.99 322.807 1172.18 323.422C1171.55 323.892 1170.92 324.368 1170.51 324.514C1169.96 324.711 1169.92 323.966 1169.89 323.371C1169.87 322.945 1169.85 322.595 1169.65 322.725C1168.65 322.884 1168.31 325.73 1168.31 325.73Z"
      fill="#997659" />
    <path fill-rule="evenodd" clip-rule="evenodd" d="M1148.43 325.796C1151.17 325.382 1154.74 324.291 1158.3 321.275L1160.31 324.465C1157.99 327.505 1154.51 330.223 1151.19 330.596C1148.58 330.889 1146.8 327.933 1148.43 325.796Z" fill="#458E94" />
    <path fill-rule="evenodd" clip-rule="evenodd"
      d="M1146.78 317.212C1146.78 317.212 1146.78 317.212 1146.78 317.212L1141.34 317.976C1141.34 317.976 1141.34 317.976 1141.34 317.976L1141.14 318.004C1140.46 318.1 1137.05 327.666 1137.86 333.456C1138.13 335.444 1137.68 337.257 1137.2 339.166C1136.4 342.334 1135.53 345.765 1137.85 350.696C1139.23 350.218 1141.66 350.193 1144.32 350.165C1149.28 350.114 1155 350.054 1155.95 347.005C1156.66 344.73 1156.63 342.352 1156.15 339.916C1160.29 339.243 1165.13 337.171 1170.58 333.285C1170.46 331.02 1167.17 326.122 1167.17 326.122C1167.17 326.122 1157.58 331.122 1152.89 330.732C1152.49 329.859 1152.08 328.985 1151.67 328.113C1149.92 324.379 1148.18 320.668 1147.4 317.125L1146.78 317.212Z"
      fill="#51B0B7" />
    <path fill-rule="evenodd" clip-rule="evenodd"
      d="M763.38 339.965C765.38 341.312 767.345 341.963 768.268 341.698C770.58 341.031 770.793 331.577 769.003 327.85C767.214 324.122 758.016 322.498 757.552 329.883C757.392 332.445 758.354 334.732 759.776 336.598L757.225 349.889H764.635L763.38 339.965Z"
      fill="#B28B67" />
    <path fill-rule="evenodd" clip-rule="evenodd"
      d="M764.779 323.554C763.802 323.375 761.172 323.252 760.687 323.252C760.377 323.252 760.042 323.331 759.858 323.013C759.708 322.752 759.763 322.312 759.718 322.01C759.666 321.658 759.592 321.312 759.517 320.966C759.304 319.983 758.982 319.047 758.531 318.168C757.686 316.52 756.447 315.228 754.884 314.477C753.157 313.647 751.203 313.458 749.346 313.626C747.358 313.806 745.559 314.539 743.682 315.229C741.894 315.887 740.021 316.146 738.15 315.825C736.266 315.501 734.842 314.36 733.252 313.276C731.625 312.167 729.765 311.441 727.842 311.608C726.046 311.764 724.391 312.593 722.906 313.7C721.517 314.735 720.37 315.981 719.723 317.735C719.027 319.622 719.028 321.692 720.173 323.36C721.832 325.776 724.913 326.401 727.476 326.339C728.958 326.303 730.415 326.001 731.814 325.451C733.681 324.717 735.294 323.473 737.04 322.464C737.86 321.991 738.707 321.602 739.595 321.322C740.456 321.05 741.305 320.925 742.085 321.507C742.911 322.122 743.65 322.727 744.594 323.112C745.5 323.481 746.459 323.688 747.424 323.68C749.302 323.664 751.153 323.01 752.976 322.572C754.463 322.215 756.054 321.859 757.57 322.202C758.203 322.345 759.127 322.641 759.355 323.376C755.51 324.155 753.999 329.47 755.083 333.372C755.669 335.478 759.186 337.94 760.553 336.833C761.42 336.131 760.894 335.21 760.553 334.602C759.901 333.438 759.678 331.943 760.885 331.133C761.925 330.434 763.019 332.094 763.04 332.092C763.326 332.066 765.797 330.505 767.499 328.226C769.178 328.337 769.433 327.099 769.032 326.087C768.631 325.075 766.128 323.801 764.779 323.554Z"
      fill="#184747" />
    <path fill-rule="evenodd" clip-rule="evenodd"
      d="M751.722 377.296C752.278 385.818 788.073 410.908 788.282 411.612C788.421 412.081 777.14 441.283 777.14 441.283L780.269 442.649C780.269 442.649 797.573 411.723 796.684 408.427C795.411 403.709 768.911 377.386 768.911 377.386L751.722 377.296Z"
      fill="#B28B67" />
    <path fill-rule="evenodd" clip-rule="evenodd"
      d="M777.964 436.886L783.073 438.976C793.846 425.317 798.068 414.048 797.298 408.306C796.528 402.564 769.621 377.317 769.621 377.317L751.356 377.317C751.98 397.052 785.158 411.687 785.601 412.528C786.045 413.369 781.678 421.606 777.964 436.886Z"
      fill="#653918" />
    <path fill-rule="evenodd" clip-rule="evenodd"
      d="M778.483 441.882C777.165 441.343 775.574 440.97 774.949 442.232C774.885 442.362 774.832 442.484 774.797 442.594C774.512 443.474 774.226 445.269 774.226 445.269C775.135 445.641 790.558 451.95 790.558 451.95C790.558 451.95 791.961 449.845 790.651 449.095C789.34 448.346 788.482 447.823 788.482 447.823L783.178 442.062C782.489 441.313 781.37 441.313 780.762 442.061C780.762 442.061 779.277 442.207 778.483 441.882Z"
      fill="#E4E4E4" />
    <path fill-rule="evenodd" clip-rule="evenodd" d="M755.839 377.296L739.893 420.314L724.22 456.683H727.918L768.372 377.296H755.839Z" fill="#997659" />
    <path fill-rule="evenodd" clip-rule="evenodd"
      d="M726.73 455.24C725.333 455.24 723.738 455.489 723.524 456.87C723.498 457.039 723.483 457.193 723.483 457.325C723.483 458.262 723.761 460.059 723.761 460.059C724.728 460.059 741.141 460.059 741.141 460.059C741.141 460.059 741.819 457.542 740.359 457.341C738.899 457.141 737.934 456.979 737.934 456.979L731.228 453.619C730.342 453.176 729.267 453.602 728.926 454.532C728.926 454.532 727.575 455.24 726.73 455.24Z"
      fill="#E4E4E4" />
    <path fill-rule="evenodd" clip-rule="evenodd" d="M725.635 449.128L733.851 450.859C740.204 440.364 766.79 397.329 769.705 377.296H751.414C741.68 391.778 731.691 438.459 725.635 449.128Z" fill="#A36633" />
    <path fill-rule="evenodd" clip-rule="evenodd"
      d="M794.074 363.096L782.924 368.612L786.484 373.75L794.834 366.538C799.006 365.675 800.94 364.934 800.638 364.314C800.383 363.791 799.909 363.762 799.472 363.735C799.132 363.714 798.814 363.694 798.641 363.443C798.244 362.872 799.222 361.106 800.214 359.475C801.205 357.843 800.276 357.902 799.732 358.097C797.913 359.238 796.027 360.904 794.074 363.096ZM744.151 371.541L737.845 370.132C733.568 382.828 731.019 389.786 730.196 391.005C729.593 391.898 725.873 394.2 723.355 395.43C722.344 395.923 722.561 396.885 722.858 397.193C724.728 399.134 726.466 398.454 728.358 397.713C728.906 397.499 729.466 397.279 730.047 397.117C731.55 396.697 732.007 397.567 732.439 398.389C732.822 399.118 733.184 399.808 734.236 399.533C734.188 399.3 734.129 399.04 734.066 398.759C733.656 396.943 733.052 394.264 733.948 392.707C734.408 391.909 737.809 384.853 744.151 371.541Z"
      fill="#B28B67" />
    <path fill-rule="evenodd" clip-rule="evenodd"
      d="M761.289 343.556L763.95 343.042C769.745 349.375 772.11 364.59 775.973 366.604C779.624 368.508 784.801 366.665 790.954 364.177L792.839 368.92C787.248 375.733 775.337 381.489 770.51 378.203C762.791 372.95 761.009 354.185 761.289 343.556Z"
      fill="#1C9FA8" />
    <path fill-rule="evenodd" clip-rule="evenodd"
      d="M749.69 381.224C749.69 381.224 765.694 381.224 773.234 381.224C774.31 381.224 774.107 379.474 773.951 378.591C772.157 368.4 765.15 357.415 765.15 342.908L758.359 341.708C752.742 351.885 750.799 364.414 749.69 381.224Z" fill="#DDE3E9" />
    <path fill-rule="evenodd" clip-rule="evenodd"
      d="M765.652 388.503H744.459C744.794 382.805 745.869 376.78 747.342 370.906C742.542 380.658 738.508 387.679 735.239 391.969L730.304 390.881C733.483 368.673 742.688 352.282 757.921 341.709H757.998C757.998 341.709 757.998 341.708 757.998 341.708H760.61C760.61 341.708 769.755 376.823 765.652 388.503Z"
      fill="#2F6267" />
    <path fill-rule="evenodd" clip-rule="evenodd"
      d="M980.441 328.219C976.463 330.616 972.555 331.775 970.72 331.302C966.12 330.116 965.697 313.287 969.257 306.652C972.816 300.018 991.114 297.126 992.037 310.271C992.357 314.833 990.441 318.905 987.611 322.227L992.686 345.882H977.944L980.441 328.219Z"
      fill="#B28B67" />
    <path fill-rule="evenodd" clip-rule="evenodd"
      d="M970.219 304.079C970.348 303.278 970.093 302.884 973.316 300.626C976.539 298.367 981.743 295.704 986.985 296.863C993.787 298.367 996.489 302.854 999.112 305.036C1001.48 307.002 1003.85 307.231 1005.25 309.672C1006.66 312.112 1007.41 319.132 1006.19 321.923C1004.5 325.773 1001.17 326.81 998.746 327.919C994.582 329.821 988.697 327.812 988.554 327.479C987.451 324.905 981.515 317.643 977.944 314.591C975.318 312.348 969.613 307.842 970.219 304.079Z"
      fill="#2F6267" />
    <mask id="mask0" mask-type="alpha" maskUnits="userSpaceOnUse" x="970" y="296" width="37" height="33">
      <path fill-rule="evenodd" clip-rule="evenodd"
        d="M970.219 304.079C970.348 303.278 970.093 302.884 973.316 300.626C976.539 298.367 981.743 295.704 986.985 296.863C993.787 298.367 996.489 302.854 999.112 305.036C1001.48 307.002 1003.85 307.231 1005.25 309.672C1006.66 312.112 1007.41 319.132 1006.19 321.923C1004.5 325.773 1001.17 326.81 998.746 327.919C994.582 329.821 988.697 327.812 988.554 327.479C987.451 324.905 981.515 317.643 977.944 314.591C975.318 312.348 969.613 307.842 970.219 304.079Z"
        fill="white" />
    </mask>
    <g mask="url(#mask0)">
      <path fill-rule="evenodd" clip-rule="evenodd"
        d="M983.51 333.76C993.554 321.374 995.917 306.436 995.917 306.436L998.942 308.35C998.942 308.35 995.221 324.674 983.51 333.76ZM979.689 340.566C995.943 326.285 999.819 310.236 999.819 310.236L1003.32 311.268C1003.32 311.268 998.496 329.214 979.689 340.566Z"
        fill="black" fill-opacity="0.2" />
    </g>
    <path fill-rule="evenodd" clip-rule="evenodd" d="M1002.49 397.751L979.413 473.353L968.232 537.647H959.466L971.28 397.751H1002.49Z" fill="#997659" />
    <path fill-rule="evenodd" clip-rule="evenodd"
      d="M1010.75 397.751C1009.18 439.26 1011.03 460.671 1011.38 464.443C1011.73 468.214 1016.53 492.668 1027.91 538.913L1018.57 535.699C1000.59 493.285 994.465 471.241 992.403 465.672C990.342 460.102 984.866 437.462 975.976 397.751H1010.75Z"
      fill="#B28B67" />
    <path fill-rule="evenodd" clip-rule="evenodd"
      d="M1025.96 535.043C1026.71 534.717 1027.61 535.052 1027.89 535.826C1028.32 537.054 1028.87 538.779 1028.87 539.772C1028.87 541.434 1028.31 544.623 1028.31 544.623C1026.39 544.623 993.721 544.623 993.721 544.623C993.721 544.623 992.372 540.157 995.278 539.8C998.183 539.444 1000.1 539.157 1000.1 539.157L1016.1 532.013C1016.46 531.851 1016.88 532.021 1017.03 532.387L1018.03 534.814C1018.03 534.814 1020.72 536.072 1022.4 536.072C1023.37 536.072 1024.87 535.515 1025.96 535.043Z"
      fill="#E4E4E4" />
    <path fill-rule="evenodd" clip-rule="evenodd"
      d="M968.306 535.043C969.061 534.717 969.957 535.052 970.233 535.826C970.67 537.054 971.213 538.779 971.213 539.772C971.213 541.434 970.661 544.623 970.661 544.623C968.736 544.623 936.068 544.623 936.068 544.623C936.068 544.623 934.719 540.157 937.624 539.8C940.53 539.444 942.451 539.157 942.451 539.157L958.446 532.013C958.807 531.851 959.23 532.021 959.381 532.387L960.38 534.814C960.38 534.814 963.069 536.072 964.751 536.072C965.721 536.072 967.215 535.515 968.306 535.043Z"
      fill="#E4E4E4" />
    <path fill-rule="evenodd" clip-rule="evenodd" d="M1005.56 397.751L995.747 436.269H965.773L970.242 397.751H1005.56Z" fill="#69A1AC" />
    <path fill-rule="evenodd" clip-rule="evenodd" d="M1011.08 397.751C1015.92 412.297 1012.92 436.269 1012.92 436.269H982.333L973.922 397.751H1011.08Z" fill="#89C5CC" />
    <path fill-rule="evenodd" clip-rule="evenodd"
      d="M917.778 336.512L941.804 340.181L937.294 350.797L917.888 342.785C909.45 343.464 905.38 343.196 905.679 341.981C905.931 340.956 906.832 340.661 907.661 340.389C908.308 340.178 908.911 339.98 909.131 339.463C909.633 338.282 906.938 335.769 904.279 333.494C901.62 331.218 903.439 330.839 904.577 330.892C908.607 331.901 913.007 333.775 917.778 336.512ZM932.141 397.42L949.544 380.471L955.321 390.452L937.225 401.105C932.687 408.241 930.021 411.324 929.229 410.355C928.562 409.538 928.868 408.642 929.15 407.817C929.37 407.175 929.575 406.575 929.294 406.089C928.651 404.978 925.018 405.615 921.597 406.367C918.175 407.118 918.967 405.44 919.695 404.564C922.929 401.959 927.077 399.577 932.141 397.42Z"
      fill="#B28B67" />
    <path fill-rule="evenodd" clip-rule="evenodd" d="M974.299 337.934C966.497 359.085 953.337 376.308 933.389 395.093L943.103 403.354C966.545 390.704 978.82 383.334 982.618 363.852C983.572 358.963 982.607 343.939 982.472 335.981L974.299 337.934Z"
      fill="#00383D" />
    <path fill-rule="evenodd" clip-rule="evenodd"
      d="M1013.05 399.305L966.209 405.888C966.209 405.888 975.314 355.203 973.121 337.099C973.047 336.484 974.03 335.243 974.552 335.314C980.281 336.093 986.181 332.495 986.181 332.495C999.79 348.76 1006.71 370.168 1013.05 399.305Z" fill="#F2F2F2" />
    <path fill-rule="evenodd" clip-rule="evenodd"
      d="M978.255 361.342C975.342 393.693 979.283 419.286 995.433 417.016L1020.41 413.506C1020.63 386.341 1005.02 350.913 992.744 333.663C992.275 333.005 991.301 331.775 989.451 332.036L982.194 333.055C982.192 333.065 982.191 333.076 982.189 333.086C980.008 333.41 977.614 333.828 975.022 334.28C961.678 336.609 943.071 339.856 921.089 336.071L920.347 348.79C941.046 358.31 961.598 365.051 978.255 361.342Z"
      fill="#A36633" />
    <path fill-rule="evenodd" clip-rule="evenodd"
      d="M1373.62 254.566C1368.54 256.839 1363.72 257.647 1361.6 256.816C1356.3 254.733 1358.26 234.645 1363.47 227.269C1368.67 219.893 1390.87 219.123 1390.04 234.901C1389.76 240.377 1386.88 244.942 1383.03 248.483L1385.61 277.373L1368.07 275.221L1373.62 254.566Z"
      fill="#915B3C" />
    <path fill-rule="evenodd" clip-rule="evenodd"
      d="M1374.58 219.396C1376.94 219.3 1383.2 219.803 1384.34 219.944C1385.08 220.034 1385.85 220.299 1386.37 219.679C1386.79 219.171 1386.78 218.222 1386.96 217.595C1387.18 216.866 1387.44 216.154 1387.71 215.443C1388.47 213.421 1389.48 211.532 1390.77 209.802C1393.2 206.556 1396.47 204.18 1400.37 203.043C1404.67 201.787 1409.34 201.952 1413.7 202.848C1418.35 203.806 1422.42 205.882 1426.68 207.889C1430.75 209.801 1435.11 210.894 1439.62 210.756C1444.17 210.618 1447.83 208.614 1451.88 206.78C1456.02 204.903 1460.61 203.907 1465.12 204.818C1469.33 205.67 1473.03 207.906 1476.26 210.682C1479.28 213.279 1481.67 216.251 1482.74 220.154C1483.9 224.353 1483.36 228.739 1480.21 231.938C1475.66 236.575 1468.2 237.005 1462.15 236.129C1458.65 235.622 1455.28 234.559 1452.11 232.987C1447.89 230.89 1444.39 227.788 1440.52 225.143C1438.71 223.902 1436.8 222.832 1434.77 221.981C1432.8 221.155 1430.83 220.644 1428.83 221.65C1426.72 222.714 1424.81 223.779 1422.47 224.321C1420.23 224.841 1417.91 225.001 1415.63 224.703C1411.19 224.123 1406.98 222.201 1402.77 220.744C1399.35 219.555 1395.67 218.34 1392 218.626C1390.46 218.746 1388.2 219.104 1387.47 220.594C1396.37 223.361 1398.56 235.058 1394.97 243.009C1393.04 247.3 1384.08 251.493 1381.13 248.751C1379.26 247.014 1380.74 245.216 1381.71 244.027C1383.55 241.751 1384.47 238.648 1381.83 236.581C1379.55 234.798 1376.52 237.997 1376.48 237.987C1375.81 237.85 1370.36 233.824 1366.93 228.502C1362.92 228.25 1362.64 225.555 1363.86 223.527C1365.07 221.5 1371.32 219.528 1374.58 219.396Z"
      fill="#2C2003" />
    <path fill-rule="evenodd" clip-rule="evenodd" d="M1379.65 337.567L1352.67 430.528L1339.99 500.325H1327.25L1339.97 337.567H1379.65Z" fill="#784931" />
    <path fill-rule="evenodd" clip-rule="evenodd"
      d="M1391.77 337.567C1389.89 385.86 1390.63 412.2 1391.05 416.588C1391.47 420.975 1393.86 450.361 1410.16 501.798H1396.91C1375.33 452.453 1367.8 423.067 1365.32 416.588C1362.85 410.108 1355.54 383.768 1344.87 337.567H1391.77Z" fill="#915B3C" />
    <path fill-rule="evenodd" clip-rule="evenodd" d="M1380.23 337.567C1373.21 369.556 1361.07 420.617 1343.82 490.751H1325.2C1323.82 418.765 1329.67 371.386 1339.81 337.567H1380.23Z" fill="#386B4A" />
    <path fill-rule="evenodd" clip-rule="evenodd" d="M1391.86 337.567C1390.02 385.86 1394.8 433.438 1409.59 491.503H1389.72C1368.1 442.894 1352.61 395.551 1342.02 337.567H1391.86Z" fill="#558345" />
    <path fill-rule="evenodd" clip-rule="evenodd"
      d="M1412.04 511.372L1411.35 500.231C1411.33 499.902 1411.01 499.677 1410.69 499.752C1404.29 501.255 1395.24 498.115 1395.24 498.115C1386.03 504.639 1372.59 507.494 1368.62 508.227C1368.01 508.339 1367.62 508.952 1367.79 509.548L1368.93 513.581H1395.24H1410.58L1412.04 511.372Z"
      fill="#191847" />
    <path fill-rule="evenodd" clip-rule="evenodd"
      d="M1342.83 511.372L1342.14 500.231C1342.12 499.902 1341.8 499.677 1341.48 499.752C1335.08 501.255 1326.02 498.115 1326.02 498.115C1316.82 504.639 1303.38 507.494 1299.4 508.227C1298.79 508.339 1298.4 508.952 1298.57 509.548L1299.72 513.581H1326.02H1341.37L1342.83 511.372Z"
      fill="#191847" />
    <path fill-rule="evenodd" clip-rule="evenodd"
      d="M1292.69 333.793L1318.82 320.879L1321.7 334.422L1297.12 339.887C1289.3 346.357 1285.12 348.891 1284.58 347.491C1284.12 346.31 1284.8 345.4 1285.43 344.562C1285.92 343.91 1286.37 343.3 1286.23 342.641C1285.91 341.134 1281.53 340.515 1277.35 340.106C1273.18 339.696 1274.7 338.073 1275.85 337.342C1280.51 335.564 1286.12 334.38 1292.69 333.793ZM1408.71 385.098C1407.35 380.412 1407.53 337.112 1407.53 337.112L1392.36 334.502C1392.36 334.502 1398.4 382.29 1399.03 385.26C1399.85 389.118 1396.46 393.916 1394.16 397.17C1393.8 397.673 1393.47 398.139 1393.19 398.56C1395.33 400.008 1396.66 398.948 1398.07 397.831C1399.67 396.569 1401.35 395.234 1404.39 397.357C1405.56 398.177 1406.65 399.093 1407.71 399.988C1411.37 403.081 1414.74 405.922 1420.4 403.673C1421.29 403.316 1422.51 401.593 1420.63 399.747C1415.94 395.148 1409.38 387.389 1408.71 385.098Z"
      fill="#915B3C" />
    <path fill-rule="evenodd" clip-rule="evenodd" d="M1375.69 265.928L1369.61 263.747C1342.8 279.75 1326.43 316.683 1294.3 332.116L1299.66 341.835C1350.21 344.424 1370.79 299.481 1375.69 265.928Z" fill="#7C5A02" />
    <path fill-rule="evenodd" clip-rule="evenodd"
      d="M1389.11 349.557C1389.11 349.557 1351.4 342.913 1333.63 339.783C1331.1 339.336 1332.22 335.759 1332.91 333.976C1340.91 313.398 1361.47 293.321 1366.83 262.968L1383.28 263.277C1392.76 286.902 1392.71 313.925 1389.11 349.557Z"
      fill="#DDE3E9" />
    <path fill-rule="evenodd" clip-rule="evenodd"
      d="M1392.66 365.887C1394.1 372.316 1395.62 377.973 1397.22 382.394L1409.12 384.49C1417.7 343.316 1407.66 308.7 1397.93 287.182C1400.88 287.487 1403.72 286.731 1405.91 284.025C1413.62 274.499 1412.54 268.315 1406.62 265.303C1403.37 263.647 1400.01 263.794 1395.99 263.971C1392.7 264.116 1388.97 264.279 1384.49 263.49C1384.48 263.49 1384.48 263.49 1384.48 263.49C1384.05 263.413 1383.65 263.373 1383.28 263.365L1377.92 262.733C1377.92 262.733 1343.46 332.02 1348.81 358.161L1392.66 365.887Z"
      fill="#C56710" />
    <path fill-rule="evenodd" clip-rule="evenodd" d="M1392.67 365.887C1390.78 357.452 1389.04 347.688 1387.49 337.645C1384.45 347.866 1380.59 357.992 1376.28 363L1392.67 365.887Z" fill="black" fill-opacity="0.1" />
    <g opacity="0.3">
      <path fill-rule="evenodd" clip-rule="evenodd"
        d="M521.41 180.432C520.844 180.277 520.277 180.133 519.704 180.006C519.267 179.91 518.632 179.641 518.199 179.804C517.749 179.973 517.63 180.539 517.587 180.95C517.357 183.124 517.639 185.185 518.852 187.103C520.719 190.058 523.238 191.99 526.44 193.423C528.689 194.43 530.983 194.522 533.132 193.365C533.797 196.002 534.095 198.8 533.91 201.49C533.818 202.818 533.567 204.085 533.191 205.358C532.95 206.174 532.691 206.983 532.388 207.777C532.256 208.123 531.931 208.611 531.986 208.986C532.05 209.427 532.603 209.621 532.944 209.353C533.227 209.131 533.332 208.569 533.461 208.249C533.676 207.718 533.886 207.185 534.077 206.644C534.387 205.769 534.678 204.885 534.907 203.984C535.423 201.96 535.491 199.804 535.362 197.713C535.114 193.7 534.009 189.89 531.637 186.487C530.178 184.394 528.205 183.166 525.867 182.155C524.411 181.526 522.94 180.854 521.41 180.432Z"
        fill="#89C5CC" />
      <path fill-rule="evenodd" clip-rule="evenodd"
        d="M526.207 197.616C520.115 195.94 514.763 199.619 511.525 204.082C510.304 205.764 509.595 207.786 508.8 209.686C508.544 210.296 508.327 211.272 507.917 211.765C507.768 211.944 507.53 211.957 507.562 212.265C507.581 212.452 507.679 212.59 507.857 212.675C508.222 212.849 508.87 212.59 509.24 212.519C512.313 211.93 514.641 210.354 516.76 208.224C518.073 206.904 519.414 205.527 520.4 203.953C521.002 202.991 521.481 201.935 521.877 200.874C522.033 200.456 522.19 200.028 522.3 199.595C522.409 199.165 522.264 198.882 522.214 198.468C524.443 198.274 526.791 198.7 528.647 200.047C530.364 201.293 531.583 203.124 532.014 205.121C532.125 205.64 532.178 206.169 532.18 206.695C532.181 207.04 532.077 207.458 532.158 207.791C532.356 208.6 533.278 208.349 533.371 207.673C533.632 205.786 533.041 203.657 532.006 202.011C530.701 199.934 528.63 198.282 526.207 197.616Z"
        fill="#89C5CC" />
      <rect width="72.2171" height="129.923" rx="3.86902" transform="matrix(0.961323 0.271683 -0.245167 0.968624 559.115 92.4292)" fill="#DDE3E9" />
      <path fill-rule="evenodd" clip-rule="evenodd"
        d="M562.894 220.689C566.465 221.702 570.06 219.75 570.922 216.329C571.785 212.908 569.589 209.313 566.018 208.3C562.447 207.287 558.852 209.239 557.99 212.66C557.127 216.081 559.323 219.676 562.894 220.689Z" fill="white" />
      <path fill-rule="evenodd" clip-rule="evenodd"
        d="M587.023 108.334C587.492 108.461 587.972 108.188 588.094 107.724C588.216 107.26 587.935 106.78 587.466 106.653C586.997 106.526 586.518 106.799 586.396 107.263C586.273 107.727 586.555 108.207 587.023 108.334Z" fill="white" />
      <rect width="9.20884" height="1.7251" rx="0.862551" transform="matrix(0.963957 0.260401 -0.255142 0.965622 590.414 107.44)" fill="white" />
      <g clip-path="url(#clip16)">
        <g clip-path="url(#clip17)">
          <rect width="59.3552" height="23.1159" rx="1.93451" transform="matrix(0.96121 0.272196 -0.244732 0.968762 562.513 105.832)" fill="white" />
          <g clip-path="url(#clip18)">
            <rect width="31.3048" height="3.4758" rx="1.45088" transform="matrix(0.96121 0.272196 -0.244732 0.968762 564.996 113.751)" fill="#DDE3E9" />
            <rect width="21.0128" height="3.4758" rx="1.45088" transform="matrix(0.96121 0.272196 -0.244732 0.968762 563.579 119.363)" fill="#DDE3E9" />
          </g>
          <path fill-rule="evenodd" clip-rule="evenodd"
            d="M611.201 135.651C612.998 136.16 614.826 135.104 615.284 133.293C615.741 131.481 614.655 129.6 612.858 129.092C611.061 128.583 609.233 129.638 608.775 131.45C608.318 133.261 609.404 135.142 611.201 135.651Z" fill="#DDE3E9" />
          <path fill-rule="evenodd" clip-rule="evenodd"
            d="M611.675 133.777C612.445 133.995 613.228 133.542 613.424 132.766C613.62 131.99 613.155 131.184 612.385 130.966C611.615 130.748 610.831 131.2 610.635 131.976C610.439 132.753 610.904 133.559 611.675 133.777Z" fill="#F2F2F2" />
        </g>
        <g clip-path="url(#clip19)">
          <rect width="59.3552" height="18.3123" rx="1.93451" transform="matrix(0.96121 0.272196 -0.244732 0.968762 556.002 131.606)" fill="white" />
          <g clip-path="url(#clip20)">
            <rect width="31.3048" height="2.7034" rx="1.3517" transform="matrix(0.96121 0.272196 -0.244732 0.968762 572.809 141.978)" fill="#DDE3E9" />
            <rect width="21.0128" height="2.7034" rx="1.3517" transform="matrix(0.96121 0.272196 -0.244732 0.968762 571.707 146.343)" fill="#DDE3E9" />
          </g>
          <path fill-rule="evenodd" clip-rule="evenodd"
            d="M562.104 148.863C565.185 149.735 568.318 147.925 569.103 144.82C569.887 141.715 568.025 138.491 564.945 137.618C561.864 136.746 558.73 138.556 557.946 141.661C557.161 144.766 559.023 147.99 562.104 148.863Z" fill="#C5CFD6" />
        </g>
        <g clip-path="url(#clip21)">
          <rect width="59.3552" height="18.3123" rx="1.93451" transform="matrix(0.96121 0.272196 -0.244732 0.968762 550.751 152.391)" fill="white" />
          <g clip-path="url(#clip22)">
            <rect width="31.3048" height="2.7034" rx="1.3517" transform="matrix(0.96121 0.272196 -0.244732 0.968762 553.612 158.814)" fill="#DDE3E9" />
            <rect width="21.0128" height="2.7034" rx="1.3517" transform="matrix(0.96121 0.272196 -0.244732 0.968762 552.51 163.179)" fill="#AFB9C5" />
          </g>
          <path fill-rule="evenodd" clip-rule="evenodd"
            d="M600.149 179.399C601.946 179.908 603.774 178.852 604.232 177.041C604.689 175.229 603.603 173.348 601.806 172.839C600.009 172.331 598.181 173.386 597.724 175.198C597.266 177.009 598.352 178.89 600.149 179.399Z" fill="#DDE3E9" />
          <path fill-rule="evenodd" clip-rule="evenodd"
            d="M600.623 177.525C601.393 177.743 602.177 177.29 602.373 176.514C602.569 175.738 602.103 174.932 601.333 174.713C600.563 174.495 599.78 174.948 599.583 175.724C599.387 176.5 599.853 177.306 600.623 177.525Z" fill="#F2F2F2" />
        </g>
        <g clip-path="url(#clip23)">
          <rect width="59.3552" height="18.3123" rx="1.93451" transform="matrix(0.96121 0.272196 -0.244732 0.968762 545.5 173.177)" fill="white" />
          <g clip-path="url(#clip24)">
            <rect width="31.3048" height="2.7034" rx="1.3517" transform="matrix(0.96121 0.272196 -0.244732 0.968762 562.307 183.549)" fill="#DDE3E9" />
            <rect width="21.0128" height="2.7034" rx="1.3517" transform="matrix(0.96121 0.272196 -0.244732 0.968762 561.204 187.914)" fill="#DDE3E9" />
          </g>
          <path fill-rule="evenodd" clip-rule="evenodd"
            d="M551.602 190.434C554.682 191.306 557.816 189.496 558.6 186.391C559.385 183.286 557.523 180.062 554.442 179.189C551.361 178.317 548.228 180.127 547.443 183.232C546.659 186.337 548.521 189.561 551.602 190.434Z" fill="#C5CFD6" />
        </g>
      </g>
    </g>
    <path fill-rule="evenodd" clip-rule="evenodd"
      d="M549.11 317.681C549.868 319.362 550.843 320.602 551.495 320.834C553.129 321.415 556.477 315.713 556.656 312.663C556.835 309.613 551.788 304.681 548.992 309.008C548.022 310.509 547.83 312.323 548.061 314.076L541.985 321.127L546.496 324.299L549.11 317.681Z"
      fill="#915B3C" />
    <path fill-rule="evenodd" clip-rule="evenodd"
      d="M547.862 306.119C547.807 305.854 547.856 305.566 547.91 305.298C547.965 305.019 548.024 304.739 548.109 304.468C548.278 303.926 548.581 303.378 549.088 303.221C549.494 303.095 549.931 303.217 550.282 303.424C550.516 303.561 550.726 303.757 550.896 303.987C551.064 304.215 551.161 304.5 551.312 304.741C551.605 304.234 551.981 303.753 552.455 303.478C552.911 303.213 553.397 303.226 553.836 303.448C554.286 303.675 554.635 304.072 554.881 304.558C554.942 304.68 555.001 304.804 555.052 304.933C555.095 305.041 555.134 305.163 555.208 305.246C555.29 305.34 555.373 305.311 555.479 305.275C555.604 305.234 555.733 305.211 555.861 305.2C556.426 305.152 557.008 305.378 557.35 305.885C557.508 306.119 557.626 306.411 557.651 306.717C557.673 306.989 557.6 307.345 557.701 307.595C557.744 307.701 557.836 307.665 557.933 307.659C558.077 307.649 558.222 307.627 558.367 307.62C558.57 307.611 558.77 307.637 558.959 307.71C559.236 307.817 559.562 308.067 559.433 308.472C559.385 308.624 559.286 308.753 559.202 308.882C559.088 309.059 558.973 309.236 558.856 309.41C558.767 309.543 558.678 309.669 558.578 309.79C558.525 309.855 558.41 309.964 558.397 310.058C558.381 310.174 558.571 310.235 558.638 310.287C558.771 310.389 558.893 310.512 558.983 310.667C559.052 310.786 559.114 310.933 559.085 311.088C559.067 311.183 559.016 311.258 558.96 311.329C558.893 311.414 558.881 311.477 558.838 311.581C559.078 311.608 559.837 311.829 559.712 312.254C559.67 312.395 559.533 312.492 559.429 312.563C559.247 312.688 559.049 312.779 558.852 312.861C558.442 313.033 558.013 313.128 557.587 313.167C557.833 313.577 557.643 314.142 557.181 314.234C556.978 314.275 556.786 314.181 556.627 314.057C556.568 314.012 556.496 313.925 556.442 313.904C556.413 313.892 556.372 313.897 556.336 313.875C556.094 313.73 555.867 313.483 555.672 313.266C555.326 312.879 555.063 312.395 554.933 311.847C554.899 311.707 554.86 311.612 554.751 311.537C554.656 311.472 554.547 311.436 554.452 311.372C554.198 311.204 554.049 310.908 553.868 310.654C553.658 310.996 553.353 311.322 553.049 311.549C552.8 311.734 552.561 311.618 552.334 311.49C551.608 311.08 550.965 310.515 550.277 310.034C550.848 310.67 551.497 311.223 552.045 311.885C552.293 312.184 551.94 312.25 551.726 312.317C551.373 312.427 551.04 312.637 550.745 312.897C550.684 312.192 550.284 311.474 549.693 311.262C549.041 311.028 548.169 311.606 548.187 312.474C548.198 312.978 548.498 313.381 548.727 313.755C548.323 313.87 548.029 314.251 547.684 314.504C547.513 314.628 547.301 314.755 547.104 314.702C547.032 314.682 546.96 314.635 546.882 314.657C546.785 314.684 546.729 314.75 546.621 314.756C546.192 314.78 545.734 314.433 545.638 313.94C545.552 313.495 545.857 313.102 546.213 312.962C545.977 312.588 545.503 311.987 545.94 311.517C545.277 310.979 544.299 308.537 545.739 308.268C545.41 307.586 545.381 306.465 546.096 305.998C546.646 305.638 547.366 305.809 547.862 306.119Z"
      fill="#184747" />
    <path fill-rule="evenodd" clip-rule="evenodd"
      d="M524.039 364.544C524.039 364.544 532.016 367.052 537.804 367.052C543.591 367.052 548.556 363.189 548.556 363.189C548.556 363.189 540.749 360.614 535.698 360.614C530.646 360.614 524.039 364.544 524.039 364.544Z" fill="#1C9FA8" />
    <path fill-rule="evenodd" clip-rule="evenodd"
      d="M542.407 369.463C542.356 369.377 542.313 369.282 542.278 369.18C541.568 367.066 530.181 344.263 529.047 340.093H541.866C542.729 343.263 546.611 363.156 547.157 367.124C548.881 373.385 552.43 393.66 552.883 395.064C553.359 396.542 550.677 398.081 549.963 396.265C548.826 393.374 546.117 385.377 544.91 380.493C543.779 375.915 542.858 371.796 542.407 369.463Z"
      fill="#784931" />
    <path fill-rule="evenodd" clip-rule="evenodd"
      d="M531.92 372.247C526.714 373.727 507.673 376.401 506.366 376.821C505.022 377.252 503.843 374.137 505.505 373.462C508.149 372.388 515.433 369.907 519.85 368.895C523.402 368.08 526.644 367.416 528.82 367.027C528.636 360.153 527.793 343.656 528.345 340.093H539.688C539.158 343.51 534.68 368.44 533.848 370.935C533.584 371.826 532.796 372.219 531.92 372.247Z"
      fill="#915B3C" />
    <path fill-rule="evenodd" clip-rule="evenodd"
      d="M505.811 374.787C505.68 373.66 505.209 372.29 504.097 372.511C503.507 372.628 502.408 373.073 502.408 373.073C502.529 373.844 504.58 386.919 504.58 386.919C504.58 386.919 506.251 387.144 506.195 385.956C506.139 384.768 506.121 383.979 506.121 383.979L507.45 377.998C507.6 377.32 507.205 376.662 506.551 376.5L506.538 376.497C506.538 376.497 505.923 375.509 505.817 374.836C505.815 374.82 505.813 374.804 505.811 374.787Z"
      fill="#E4E4E4" />
    <path fill-rule="evenodd" clip-rule="evenodd"
      d="M551.114 396.2C550.109 396.2 548.962 396.379 548.808 397.372C548.789 397.494 548.778 397.605 548.778 397.701C548.778 398.375 548.978 399.668 548.978 399.668C549.674 399.668 561.482 399.668 561.482 399.668C561.482 399.668 561.969 397.857 560.919 397.712C559.869 397.568 559.174 397.451 559.174 397.451L554.35 395.033C553.713 394.714 552.939 395.02 552.694 395.69C552.694 395.69 551.722 396.2 551.114 396.2Z"
      fill="#E4E4E4" />
    <path fill-rule="evenodd" clip-rule="evenodd"
      d="M528.382 340.093C528.382 340.093 535.88 337.681 542.57 340.093C544.122 348.054 547.893 351.214 548.556 363.42C541.018 367.631 531.707 360.416 523.948 364.523C521.731 358.779 524.835 344.945 528.382 340.093Z" fill="#393939" />
    <path fill-rule="evenodd" clip-rule="evenodd"
      d="M556.936 354.336L553.275 345.384L550.04 348.329L554.749 354.995C555.352 358.359 555.849 359.915 556.241 359.663C556.572 359.45 556.585 359.066 556.597 358.712C556.606 358.437 556.614 358.179 556.772 358.036C557.132 357.708 558.272 358.477 559.326 359.259C560.379 360.04 560.33 359.289 560.199 358.852C559.448 357.394 558.361 355.889 556.936 354.336ZM519.25 348.771C520.327 347.651 526.985 335.071 526.985 335.071L531.297 336.954C531.297 336.954 522.341 349.753 521.719 350.504C520.911 351.479 521.042 353.461 521.131 354.804C521.145 355.012 521.158 355.204 521.166 355.376C520.39 355.423 520.21 354.883 520.02 354.314C519.805 353.671 519.577 352.99 518.466 353.077C518.037 353.11 517.615 353.187 517.203 353.261C515.78 353.52 514.473 353.757 513.364 352.12C513.188 351.861 513.141 351.149 513.912 350.942C515.832 350.426 518.723 349.319 519.25 348.771Z"
      fill="#915B3C" />
    <path fill-rule="evenodd" clip-rule="evenodd" d="M546.212 319.984L548.116 320.411C548.242 330.385 550.932 340.56 556.186 350.936L547.693 356.352C543.462 342.982 542.279 330.562 546.212 319.984Z" fill="#184747" />
    <path fill-rule="evenodd" clip-rule="evenodd" d="M529.803 341.883L545.713 348.754C545.713 348.754 545.345 331.241 548.953 320.669L544.428 317.792C538.327 322.988 534.395 330.931 529.803 341.883Z" fill="#DDE3E9" />
    <path fill-rule="evenodd" clip-rule="evenodd"
      d="M544.325 317.752L544.322 317.747C544.322 317.747 529.23 325.098 519.954 346.432L527.708 349.781C527.977 348.781 528.266 347.803 528.572 346.848L538.986 351.345C538.986 351.345 544.072 329.831 546.215 322.932L546.328 318.703C546.328 318.703 545.196 318.149 544.641 317.884L544.328 317.749C544.327 317.75 544.326 317.751 544.325 317.752Z"
      fill="#2F7661" />
    <path fill-rule="evenodd" clip-rule="evenodd" d="M528.542 346.941C529.867 342.778 531.514 339.044 533.253 335.772C532.118 340.055 531.003 345.318 531.443 348.193L528.542 346.941Z" fill="black" fill-opacity="0.1" />
    <path fill-rule="evenodd" clip-rule="evenodd" d="M533.305 340.729L539.366 340.26L538.448 342.95L533.305 340.729Z" fill="white" fill-opacity="0.2" />
    <g opacity="0.1">
      <path fill-rule="evenodd" clip-rule="evenodd" d="M586.644 378.05C586.643 378.055 586.642 378.061 586.641 378.067C586.642 378.062 586.641 378.042 586.644 378.05Z" fill="#C5CFD6" />
      <path fill-rule="evenodd" clip-rule="evenodd" d="M586.641 378.059C586.641 378.06 586.641 378.062 586.641 378.064C586.64 378.059 586.645 378.042 586.641 378.059Z" fill="#C5CFD6" />
      <path fill-rule="evenodd" clip-rule="evenodd" d="M586.654 377.97C586.652 377.99 586.648 378.011 586.645 378.032C586.647 378.021 586.648 378.013 586.65 378.002C586.613 378.274 586.635 378.098 586.654 377.97Z" fill="#C5CFD6" />
      <path fill-rule="evenodd" clip-rule="evenodd" d="M586.647 378.032C586.645 378.042 586.644 378.052 586.642 378.062C586.628 378.122 586.647 378.032 586.647 378.032Z" fill="#C5CFD6" />
      <path fill-rule="evenodd" clip-rule="evenodd" d="M586.642 378.059C586.641 378.058 586.641 378.058 586.642 378.057C586.641 378.058 586.641 378.058 586.642 378.059Z" fill="#C5CFD6" />
      <path fill-rule="evenodd" clip-rule="evenodd" d="M586.639 378.067C586.636 378.079 586.655 378.016 586.639 378.067V378.067Z" fill="#C5CFD6" />
      <path fill-rule="evenodd" clip-rule="evenodd" d="M586.641 378.059L586.643 378.056C586.642 378.058 586.642 378.059 586.641 378.059Z" fill="#C5CFD6" />
      <rect x="526" y="338.75" width="98.1699" height="64.7922" rx="4" transform="rotate(-14 526 338.75)" fill="#3CA7AE" />
      <path fill-rule="evenodd" clip-rule="evenodd" d="M567.05 348.683L549.323 399.752L605.211 384.953L567.05 348.683Z" fill="black" fill-opacity="0.2" />
      <path fill-rule="evenodd" clip-rule="evenodd" d="M598.249 353.525L581.067 391.896L630.352 378.862L598.249 353.525Z" fill="black" fill-opacity="0.2" />
      <path fill-rule="evenodd" clip-rule="evenodd"
        d="M608.396 350.91C613.394 349.664 616.435 344.602 615.189 339.604C613.943 334.607 608.881 331.565 603.884 332.811C598.886 334.057 595.845 339.119 597.091 344.117C598.337 349.114 603.398 352.156 608.396 350.91Z" fill="white" />
    </g>
    <path fill-rule="evenodd" clip-rule="evenodd"
      d="M298.157 250.211C298.696 247.234 298.956 240.25 300.85 238.301C302.071 237.045 304.218 242.349 304.727 243.309C306.698 247.021 308.19 250.951 309.586 254.921C312.105 262.082 312.257 269.547 311.206 277.303C310.665 281.293 309.792 285.502 307.425 289.048C306.335 290.681 304.581 291.771 303.452 293.277C302.136 295.031 302.739 293.852 302.804 295.941C302.894 298.84 304.069 302.03 304.825 304.78C308.293 317.407 333.277 380.698 340.139 391.808C340.747 392.793 339.317 393.847 338.603 392.631C334.812 386.18 314.987 338.17 309.137 322.14C303.287 306.11 298.351 291.828 297.531 285.656C296.536 278.168 296.678 268.467 297.016 260.826C297.173 257.277 297.516 253.749 298.157 250.211Z"
      fill="#A36633" />
    <path fill-rule="evenodd" clip-rule="evenodd"
      d="M347.994 318.835C350.712 313.833 357.881 316.825 355.558 321.621C354.273 324.272 351.827 324.85 349.952 324.186C349.612 325.499 349.344 326.827 349.031 327.993C348.078 331.548 347.272 335.097 346.587 338.657C345.163 346.053 344.471 353.44 343.569 360.81C342.678 368.083 341.831 375.368 341.346 382.601C340.936 388.728 340.021 396.164 341.654 401.789C337.619 390.158 337.808 376.846 339.471 363.855C341.121 350.97 343.28 336.711 349.467 323.982C347.755 323.126 346.73 321.159 347.994 318.835Z"
      fill="#A36633" />
    <path fill-rule="evenodd" clip-rule="evenodd"
      d="M256.766 332.085C259.313 331.288 265.598 334.197 268.463 335.059C271.868 336.083 275.135 337.365 278.339 338.821C285.238 341.957 291.862 345.662 298.045 349.904C308.124 356.821 317.295 364.536 325.623 373.452C330.721 378.911 335.282 384.946 339.33 391.19C340.094 392.368 346.353 401.253 344.453 402.574C342.745 403.763 339.509 395.928 338.904 394.949C332.076 383.899 323.419 374.201 313.774 365.465C311.673 363.562 309.367 361.091 306.844 359.709C305.027 358.714 306.331 358.71 304.208 359.084C302.386 359.405 300.658 360.463 298.741 360.691C294.577 361.188 290.477 360.068 286.716 358.752C279.405 356.194 272.876 352.706 267.646 347.265C264.746 344.249 261.923 341.165 259.502 337.757C258.876 336.877 255.125 332.598 256.766 332.085Z"
      fill="#1C9FA8" />
    <path fill-rule="evenodd" clip-rule="evenodd"
      d="M223.311 244.768C239.422 254.385 254.658 266.228 267.408 279.618C275.133 287.731 282.126 296.541 289.069 305.288C299.821 318.83 310.405 332.458 319.045 347.439C327.735 362.506 338.444 379.527 340.516 397.314C335.578 380.73 324.786 365.955 316.591 350.945C312.679 343.779 308.384 336.903 303.874 330.102C299.498 323.505 294.623 317.21 289.85 310.89C287.526 307.811 285.174 304.754 282.811 301.705C282.106 300.795 280.505 297.84 279.461 297.511C278.411 297.179 274.704 298.749 273.327 298.821C270.554 298.966 267.696 298.609 265.039 298.044C259.947 296.96 254.864 294.727 250.467 292.206C240.293 286.374 232.565 276.82 227.512 266.566C226.531 264.575 219.174 241.47 217.64 241.897C217.678 241.763 217.71 241.629 217.735 241.494C219.605 242.569 221.46 243.666 223.311 244.768Z"
      fill="#1C9FA8" />
    <path fill-rule="evenodd" clip-rule="evenodd"
      d="M343.308 248.448C343.352 248.195 343.598 246.471 343.194 246.784C344.015 246.147 342.653 248.827 344.423 246.694C343.827 248.192 345.058 249.088 345.708 250.343C346.765 252.381 347.42 254.608 348.015 256.832C348.956 260.348 349.531 263.943 349.598 267.636C349.742 275.685 347.605 284.624 343.391 291.908C341.311 295.504 338.633 297.759 335.581 300.511C333.654 302.249 334.015 303.408 333.845 306.025C333.493 311.475 333.176 316.888 333.184 322.327C333.194 328.823 333.282 335.284 333.554 341.756C334.472 363.557 337.192 385.217 343.311 405.904C337.616 394.807 334.609 381.881 332.757 369.432C331.408 360.361 330.968 351.167 330.788 341.933C330.744 339.696 330.884 336.715 330.254 334.55C329.812 333.033 328.362 332.111 327.271 330.84C323.021 325.893 319.918 319.483 318.265 313.137C316.443 306.141 318.867 301.182 325.008 296.842C327.253 295.255 330.377 293.771 332.105 291.66C333.989 289.36 333.26 285.422 333.524 282.511C334.232 274.692 335.753 266.752 338.268 259.16C338.964 257.058 339.819 255.008 340.811 253.002C341.437 251.737 343.088 249.718 343.308 248.448Z"
      fill="#2F6267" />
    <path opacity="0.6" fill-rule="evenodd" clip-rule="evenodd" d="M320.315 185.313L297.286 208.746L320.315 232.179L343.344 208.746L320.315 185.313Z" fill="#E9B58F" />
    <path opacity="0.6" fill-rule="evenodd" clip-rule="evenodd" d="M418 346L381 383.5L418 421L455 383.5L418 346Z" fill="#1C9FA8" />
    <path opacity="0.6" fill-rule="evenodd" clip-rule="evenodd" d="M378.756 145L363 161.161L378.756 177.322L394.513 161.161L378.756 145Z" fill="#1C9FA8" />
    <path opacity="0.6" fill-rule="evenodd" clip-rule="evenodd" d="M481.757 318L466 334.161L481.757 350.322L497.513 334.161L481.757 318Z" fill="#E9B58F" />
  </g>
  <defs>
    <clipPath id="clip0">
      <rect width="75.0006" height="194.955" fill="white" transform="matrix(0.934012 -0.351011 0.330565 0.941803 939.129 208.157)" />
    </clipPath>
    <clipPath id="clip1">
      <rect width="57.4433" height="76.4131" fill="white" transform="matrix(0.934012 -0.351011 0.330565 0.941803 950.138 213.301)" />
    </clipPath>
    <clipPath id="clip2">
      <rect width="237.124" height="280.332" fill="white" transform="matrix(0.933312 -0.3534 0.328483 0.942713 685.622 208.612)" />
    </clipPath>
    <clipPath id="clip3">
      <rect width="237.124" height="46.722" fill="white" transform="matrix(0.933312 -0.3534 0.328483 0.942713 685.622 208.612)" />
    </clipPath>
    <clipPath id="clip4">
      <rect width="208.766" height="18.6888" fill="white" transform="matrix(0.933312 -0.3534 0.328483 0.942713 694.289 220.288)" />
    </clipPath>
    <clipPath id="clip5">
      <rect width="237.124" height="38.7693" fill="white" transform="matrix(0.933312 -0.3534 0.328483 0.942713 703.582 260.155)" />
    </clipPath>
    <clipPath id="clip6">
      <rect width="208.766" height="15.5077" fill="white" transform="matrix(0.933312 -0.3534 0.328483 0.942713 711.465 269.581)" />
    </clipPath>
    <clipPath id="clip7">
      <rect width="237.124" height="38.7693" fill="white" transform="matrix(0.933312 -0.3534 0.328483 0.942713 718.929 304.2)" />
    </clipPath>
    <clipPath id="clip8">
      <rect width="208.766" height="15.5077" fill="white" transform="matrix(0.933312 -0.3534 0.328483 0.942713 726.812 313.626)" />
    </clipPath>
    <clipPath id="clip9">
      <rect width="237.124" height="38.7693" fill="white" transform="matrix(0.933312 -0.3534 0.328483 0.942713 764.972 436.337)" />
    </clipPath>
    <clipPath id="clip10">
      <rect width="208.766" height="15.5077" fill="white" transform="matrix(0.933312 -0.3534 0.328483 0.942713 772.854 445.763)" />
    </clipPath>
    <clipPath id="clip11">
      <rect width="237.124" height="38.7693" fill="white" transform="matrix(0.933312 -0.3534 0.328483 0.942713 749.624 392.291)" />
    </clipPath>
    <clipPath id="clip12">
      <rect width="208.766" height="15.5077" fill="white" transform="matrix(0.933312 -0.3534 0.328483 0.942713 757.507 401.717)" />
    </clipPath>
    <clipPath id="clip13">
      <rect width="237.124" height="38.7693" fill="white" transform="matrix(0.933312 -0.3534 0.328483 0.942713 734.277 348.246)" />
    </clipPath>
    <clipPath id="clip14">
      <rect width="208.766" height="15.5077" fill="white" transform="matrix(0.933312 -0.3534 0.328483 0.942713 742.16 357.672)" />
    </clipPath>
    <clipPath id="clip15">
      <rect width="222.819" height="17.0111" fill="white" transform="matrix(-0.931873 -0.362785 -0.361191 0.932492 1453.99 168.552)" />
    </clipPath>
    <clipPath id="clip16">
      <rect width="59.2473" height="87.5387" fill="white" transform="matrix(0.96121 0.272196 -0.244732 0.968762 562.513 105.832)" />
    </clipPath>
    <clipPath id="clip17">
      <rect width="59.2473" height="23.172" fill="white" transform="matrix(0.96121 0.272196 -0.244732 0.968762 562.513 105.832)" />
    </clipPath>
    <clipPath id="clip18">
      <rect width="31.3048" height="9.2688" fill="white" transform="matrix(0.96121 0.272196 -0.244732 0.968762 564.996 113.751)" />
    </clipPath>
    <clipPath id="clip19">
      <rect width="59.2473" height="18.0227" fill="white" transform="matrix(0.96121 0.272196 -0.244732 0.968762 556.002 131.606)" />
    </clipPath>
    <clipPath id="clip20">
      <rect width="31.3048" height="7.20907" fill="white" transform="matrix(0.96121 0.272196 -0.244732 0.968762 572.809 141.978)" />
    </clipPath>
    <clipPath id="clip21">
      <rect width="59.2473" height="18.0227" fill="white" transform="matrix(0.96121 0.272196 -0.244732 0.968762 550.751 152.391)" />
    </clipPath>
    <clipPath id="clip22">
      <rect width="31.3048" height="7.20907" fill="white" transform="matrix(0.96121 0.272196 -0.244732 0.968762 553.612 158.814)" />
    </clipPath>
    <clipPath id="clip23">
      <rect width="59.2473" height="18.0227" fill="white" transform="matrix(0.96121 0.272196 -0.244732 0.968762 545.5 173.177)" />
    </clipPath>
    <clipPath id="clip24">
      <rect width="31.3048" height="7.20906" fill="white" transform="matrix(0.96121 0.272196 -0.244732 0.968762 562.307 183.549)" />
    </clipPath>
  </defs>
</svg>