<svg width="107" height="128" viewBox="0 0 107 128" fill="none" xmlns="http://www.w3.org/2000/svg">
  <path
    d="M53.4876 0.997803C52.0949 0.997803 50.9554 2.18843 50.9554 3.64364V14.227C50.9554 15.6822 52.0949 16.8728 53.4876 16.8728C54.8803 16.8728 56.0197 15.6822 56.0197 14.227V3.64364C56.0197 2.18843 54.8803 0.997803 53.4876 0.997803ZM17.6827 16.5024C17.037 16.5024 16.3913 16.767 15.8975 17.2829C14.91 18.3148 14.91 19.9684 15.8975 21.0003L23.0636 28.488C24.0511 29.5199 25.6337 29.5199 26.6213 28.488C27.6088 27.4562 27.6088 25.8025 26.6213 24.7707L19.4552 17.2829C18.9614 16.767 18.3284 16.5024 17.6827 16.5024ZM89.2924 16.5024C88.6467 16.5024 88.001 16.767 87.5073 17.2829L80.3412 24.7707C79.3537 25.8025 79.3537 27.4562 80.3412 28.488C81.3288 29.5199 82.9114 29.5199 83.8989 28.488L91.065 21.0003C92.0525 19.9684 92.0525 18.3148 91.065 17.2829C90.5838 16.767 89.9381 16.5024 89.2924 16.5024ZM53.4876 24.8103C38.0413 24.8103 23.1015 37.3251 23.1015 55.0258C23.1015 76.6819 37.7375 82.1984 39.4087 96.2478H67.5791C69.2503 82.1984 83.8863 76.6951 83.8863 55.0258C83.8736 37.3251 68.9338 24.8103 53.4876 24.8103ZM50.6769 31.5969C52.3228 31.5175 53.7281 32.3907 53.6901 34.1237C53.7281 35.5127 52.5633 36.8092 51.2339 36.8489C41.7889 37.9998 34.4963 46.3606 34.4963 56.5603C34.4963 58.5976 34.7875 60.5423 35.3319 62.3944C35.8637 63.757 35.0534 65.4768 33.7113 65.9133C32.3693 66.3367 30.7867 65.3709 30.5081 63.929C29.8244 61.5874 29.4446 59.14 29.4446 56.5735C29.432 43.7016 38.725 33.0521 50.6769 31.5969ZM2.84418 53.9145C1.45149 53.9145 0.312012 55.1051 0.312012 56.5603C0.312012 58.0155 1.45149 59.2061 2.84418 59.2061H12.9729C14.3656 59.2061 15.505 58.0155 15.505 56.5603C15.505 55.1051 14.3656 53.9145 12.9729 53.9145H2.84418ZM94.0023 53.9145C92.6096 53.9145 91.4701 55.1051 91.4701 56.5603C91.4701 58.0155 92.6096 59.2061 94.0023 59.2061H104.131C105.524 59.2061 106.663 58.0155 106.663 56.5603C106.663 55.1051 105.524 53.9145 104.131 53.9145H94.0023ZM39.5606 101.539V106.831H67.4145V101.539H39.5606ZM39.5606 112.123V114.769C39.5606 117.811 41.9535 120.06 44.625 120.06H48.4232V122.706C48.4232 125.643 50.6769 127.998 53.4876 127.998C56.2983 127.998 58.5519 125.643 58.5519 122.706V120.06H62.3502C65.0216 120.06 67.4145 117.811 67.4145 114.769V112.123H39.5606Z"
    fill="#A36633" />
</svg>