<svg width="167" height="56" viewBox="0 0 167 56" fill="none" xmlns="http://www.w3.org/2000/svg">
  <path
    d="M14.1081 11.3738C22.2448 11.3738 28.2161 16.7931 28.2161 25.3571C28.2161 33.921 22.2448 39.3404 14.1081 39.3404C5.97132 39.3404 0 33.921 0 25.3571C0 16.7931 5.97132 11.3738 14.1081 11.3738ZM14.1081 33.921C19.0295 33.921 22.2448 30.3081 22.2448 25.3571C22.2448 20.406 19.0295 16.7931 14.1081 16.7931C9.18665 16.7931 5.97132 20.406 5.97132 25.3571C5.97132 30.3081 9.18665 33.921 14.1081 33.921Z"
    fill="white" />
  <path
    d="M31.1689 19.135H36.5497V21.6774H36.6153C37.534 20.2724 39.765 18.6666 42.3898 18.6666C47.9674 18.6666 51.642 22.7479 51.642 28.5687C51.642 33.9211 48.3611 38.8052 43.046 38.8052C40.6181 38.8052 38.387 38.1362 37.0746 36.2628H37.009V47.3023H31.1689V19.135ZM41.143 33.5866C44.0303 33.5866 45.802 31.5794 45.802 28.7025C45.802 25.8255 44.0303 23.8184 41.143 23.8184C38.2558 23.8184 36.4841 25.8255 36.4841 28.7025C36.4841 31.5794 38.2558 33.5866 41.143 33.5866Z"
    fill="white" />
  <path
    d="M73.5588 35.7945C71.6559 38.27 68.5718 39.675 65.4877 39.675C59.582 39.675 54.8574 35.6607 54.8574 29.4385C54.8574 23.2162 59.582 19.2019 65.4877 19.2019C70.9997 19.2019 74.4775 23.2162 74.4775 29.4385V31.3118H60.7631C61.2225 33.5866 62.9285 35.0586 65.2252 35.0586C67.1282 35.0586 68.4405 34.055 69.4248 32.7169L73.5588 35.7945ZM68.5718 27.2306C68.6374 25.2234 67.0625 23.5508 64.9627 23.5508C62.338 23.5508 60.96 25.3572 60.7631 27.2306H68.5718Z"
    fill="white" />
  <path
    d="M78.021 20.0716H83.7298V22.7478H83.7955C84.5829 21.209 86.5515 19.6033 89.4387 19.6033C95.4756 19.6033 96.5912 23.6176 96.5912 28.9032V39.7419H90.6854V30.0406C90.6854 27.7658 90.6198 24.8888 87.6014 24.8888C84.5173 24.8888 84.0579 27.3643 84.0579 29.9067V39.675H78.1522V20.0716H78.021Z"
    fill="white" />
  <path d="M102.3 12.0432H107.812V43.3551H102.3V12.0432Z" fill="white" />
  <path
    d="M126.776 36.6641H126.71C125.398 38.8051 122.97 39.6749 120.542 39.6749C116.867 39.6749 113.586 37.5339 113.586 33.5195C113.586 26.6283 121.789 26.5614 126.776 26.5614C126.776 24.4204 125.004 23.0154 122.904 23.0154C120.936 23.0154 119.295 23.8851 118.049 25.3571L114.833 22.0118C117.064 19.8708 120.214 18.8003 123.429 18.8003C130.45 18.8003 132.353 22.4132 132.353 29.0369V39.1396H126.841V36.6641H126.776ZM125.267 30.5088C123.429 30.5088 119.361 30.6426 119.361 33.3857C119.361 34.8577 120.87 35.5267 122.182 35.5267C124.545 35.5267 126.776 34.2555 126.776 31.78V30.4419H125.267V30.5088Z"
    fill="white" />
  <path d="M134.781 20.7408H140.884L144.689 32.6501H144.755L147.905 20.7408H154.204L157.616 32.6501H157.682L161.16 20.7408H167L160.372 39.6752H154.729L150.858 27.0969H150.792L147.38 39.6752H141.605L134.781 20.7408Z" fill="white" />
  <path
    d="M107.812 5.28555H72.2464C71.3934 2.20789 68.6374 0 65.3565 0C61.3537 0 58.0728 3.34528 58.0728 7.42653C58.0728 11.5078 61.3537 14.8531 65.3565 14.8531C68.703 14.8531 71.5903 12.5114 72.3777 9.3668H107.878V5.28555H107.812ZM65.3565 11.5747C63.1254 11.5747 61.2881 9.70132 61.2881 7.42653C61.2881 5.15174 63.1254 3.27838 65.3565 3.27838C67.5875 3.27838 69.4248 5.15174 69.4248 7.42653C69.4248 9.76823 67.5875 11.5747 65.3565 11.5747Z"
    fill="#00A8B3" />
  <path
    d="M144.821 41.147C141.474 41.147 138.587 43.4887 137.8 46.6332H102.3V50.7145H137.865C138.784 53.7921 141.54 56 144.821 56C148.824 56 152.105 52.6547 152.105 48.5735C152.105 44.4923 148.824 41.147 144.821 41.147ZM144.821 52.7886C142.59 52.7886 140.752 50.9152 140.752 48.6404C140.752 46.3656 142.59 44.4923 144.821 44.4923C147.052 44.4923 148.889 46.3656 148.889 48.6404C148.889 50.9152 147.052 52.7886 144.821 52.7886Z"
    fill="#00A8B3" />
</svg>