<svg width="144" height="133" viewBox="0 0 144 133" fill="none" xmlns="http://www.w3.org/2000/svg">
  <g clip-path="url(#clip0)">
    <g clip-path="url(#clip1)">
      <rect x="19.292" y="-1.52588e-05" width="106.138" height="92.7369" rx="2.14421" fill="#F2F2F2" />
      <path d="M19.292 2.14419C19.292 0.959978 20.252 -1.52588e-05 21.4362 -1.52588e-05H123.286C124.47 -1.52588e-05 125.43 0.959978 125.43 2.14419V7.23668H19.292V2.14419Z" fill="#C5CFD6" />
      <path fill-rule="evenodd" clip-rule="evenodd"
        d="M22.7762 4.82446C23.3683 4.82446 23.8483 4.34446 23.8483 3.75235C23.8483 3.16025 23.3683 2.68025 22.7762 2.68025C22.1841 2.68025 21.7041 3.16025 21.7041 3.75235C21.7041 4.34446 22.1841 4.82446 22.7762 4.82446Z" fill="#F2F2F2" />
      <path fill-rule="evenodd" clip-rule="evenodd"
        d="M25.9925 4.82447C26.5846 4.82447 27.0646 4.34448 27.0646 3.75237C27.0646 3.16026 26.5846 2.68027 25.9925 2.68027C25.4004 2.68027 24.9204 3.16026 24.9204 3.75237C24.9204 4.34448 25.4004 4.82447 25.9925 4.82447Z" fill="#F2F2F2" />
      <path fill-rule="evenodd" clip-rule="evenodd"
        d="M29.2088 4.82447C29.8009 4.82447 30.2809 4.34448 30.2809 3.75237C30.2809 3.16026 29.8009 2.68027 29.2088 2.68027C28.6167 2.68027 28.1367 3.16026 28.1367 3.75237C28.1367 4.34448 28.6167 4.82447 29.2088 4.82447Z" fill="#F2F2F2" />
      <g clip-path="url(#clip2)">
        <g clip-path="url(#clip3)">
          <rect x="102.38" y="35.3794" width="18.7618" height="51.997" rx="2.14421" fill="white" />
          <g clip-path="url(#clip4)">
            <rect x="107.205" y="40.2038" width="9.11287" height="6.96867" rx="1.0721" fill="#DDE3E9" />
            <rect x="107.205" y="49.3167" width="9.11287" height="6.70064" rx="1.0721" fill="#AFB9C5" />
            <rect x="107.205" y="58.1616" width="9.11287" height="6.70064" rx="1.0721" fill="#DDE3E9" />
            <rect x="107.205" y="75.8513" width="9.11287" height="6.70064" rx="1.0721" fill="#DDE3E9" />
            <rect x="107.205" y="67.0064" width="9.11287" height="6.70064" rx="1.0721" fill="#C5CFD6" />
          </g>
        </g>
        <rect x="102.38" y="11.5251" width="18.7618" height="21.7101" rx="2.14421" fill="white" />
        <g clip-path="url(#clip5)">
          <path fill-rule="evenodd" clip-rule="evenodd"
            d="M111.761 24.1223C114.129 24.1223 116.049 22.2023 116.049 19.8339C116.049 17.4655 114.129 15.5455 111.761 15.5455C109.393 15.5455 107.473 17.4655 107.473 19.8339C107.473 22.2023 109.393 24.1223 111.761 24.1223Z" fill="#DDE3E9" />
          <rect x="105.06" y="25.1944" width="13.4013" height="1.60815" rx="0.804077" fill="#DDE3E9" />
          <rect x="107.205" y="27.8747" width="9.11287" height="1.60815" rx="0.804077" fill="#DDE3E9" />
        </g>
        <g clip-path="url(#clip6)">
          <g clip-path="url(#clip7)">
            <rect x="23.5806" y="11.5251" width="76.6553" height="12.5972" rx="1.0721" fill="white" />
            <g clip-path="url(#clip8)">
              <rect x="25.9927" y="15.3043" width="61.1098" height="1.88958" rx="0.804077" fill="#DDE3E9" />
              <rect x="25.9927" y="18.4536" width="41.0189" height="1.88958" rx="0.804077" fill="#DDE3E9" />
            </g>
            <path fill-rule="evenodd" clip-rule="evenodd"
              d="M92.0437 19.6999C93.0798 19.6999 93.9198 18.8599 93.9198 17.8237C93.9198 16.7875 93.0798 15.9475 92.0437 15.9475C91.0075 15.9475 90.1675 16.7875 90.1675 17.8237C90.1675 18.8599 91.0075 19.6999 92.0437 19.6999Z" fill="#DDE3E9" />
            <path fill-rule="evenodd" clip-rule="evenodd"
              d="M92.0433 18.6278C92.4874 18.6278 92.8474 18.2678 92.8474 17.8237C92.8474 17.3796 92.4874 17.0196 92.0433 17.0196C91.5993 17.0196 91.2393 17.3796 91.2393 17.8237C91.2393 18.2678 91.5993 18.6278 92.0433 18.6278Z" fill="#F2F2F2" />
          </g>
          <g clip-path="url(#clip9)">
            <rect x="23.5806" y="26.2665" width="76.6553" height="10.453" rx="1.0721" fill="white" />
            <g clip-path="url(#clip10)">
              <rect x="25.9927" y="29.4024" width="61.1098" height="1.56795" rx="0.783975" fill="#DDE3E9" />
              <rect x="25.9927" y="32.0157" width="41.0189" height="1.56795" rx="0.783975" fill="#DDE3E9" />
            </g>
            <path fill-rule="evenodd" clip-rule="evenodd"
              d="M92.0437 33.3692C93.0798 33.3692 93.9198 32.5292 93.9198 31.493C93.9198 30.4568 93.0798 29.6168 92.0437 29.6168C91.0075 29.6168 90.1675 30.4568 90.1675 31.493C90.1675 32.5292 91.0075 33.3692 92.0437 33.3692Z" fill="#DDE3E9" />
            <path fill-rule="evenodd" clip-rule="evenodd"
              d="M92.0433 32.2971C92.4874 32.2971 92.8474 31.9371 92.8474 31.493C92.8474 31.0489 92.4874 30.6889 92.0433 30.6889C91.5993 30.6889 91.2393 31.0489 91.2393 31.493C91.2393 31.9371 91.5993 32.2971 92.0433 32.2971Z" fill="#F2F2F2" />
          </g>
          <g clip-path="url(#clip11)">
            <rect x="23.5806" y="38.8637" width="76.6553" height="10.453" rx="1.0721" fill="white" />
            <g clip-path="url(#clip12)">
              <rect x="25.9927" y="41.9996" width="61.1098" height="1.56795" rx="0.783975" fill="#DDE3E9" />
              <rect x="25.9927" y="44.6129" width="41.0189" height="1.56795" rx="0.783975" fill="#DDE3E9" />
            </g>
            <path fill-rule="evenodd" clip-rule="evenodd"
              d="M92.0437 45.9664C93.0798 45.9664 93.9198 45.1264 93.9198 44.0902C93.9198 43.054 93.0798 42.2141 92.0437 42.2141C91.0075 42.2141 90.1675 43.054 90.1675 44.0902C90.1675 45.1264 91.0075 45.9664 92.0437 45.9664Z" fill="#DDE3E9" />
            <path fill-rule="evenodd" clip-rule="evenodd"
              d="M92.0433 44.8943C92.4874 44.8943 92.8474 44.5343 92.8474 44.0902C92.8474 43.6462 92.4874 43.2862 92.0433 43.2862C91.5993 43.2862 91.2393 43.6462 91.2393 44.0902C91.2393 44.5343 91.5993 44.8943 92.0433 44.8943Z" fill="#AFB9C5" />
          </g>
          <g clip-path="url(#clip13)">
            <rect x="23.5806" y="76.6553" width="76.6553" height="10.453" rx="1.0721" fill="white" />
            <g clip-path="url(#clip14)">
              <rect x="25.9927" y="79.7912" width="61.1098" height="1.56795" rx="0.783975" fill="#DDE3E9" />
              <rect x="25.9927" y="82.4045" width="41.0189" height="1.56795" rx="0.783975" fill="#DDE3E9" />
            </g>
            <path fill-rule="evenodd" clip-rule="evenodd"
              d="M92.0437 83.758C93.0798 83.758 93.9198 82.918 93.9198 81.8818C93.9198 80.8456 93.0798 80.0056 92.0437 80.0056C91.0075 80.0056 90.1675 80.8456 90.1675 81.8818C90.1675 82.918 91.0075 83.758 92.0437 83.758Z" fill="#DDE3E9" />
            <path fill-rule="evenodd" clip-rule="evenodd"
              d="M92.0433 82.6859C92.4874 82.6859 92.8474 82.3259 92.8474 81.8818C92.8474 81.4377 92.4874 81.0777 92.0433 81.0777C91.5993 81.0777 91.2393 81.4377 91.2393 81.8818C91.2393 82.3259 91.5993 82.6859 92.0433 82.6859Z" fill="#F2F2F2" />
          </g>
          <g clip-path="url(#clip15)">
            <rect x="23.5806" y="64.0581" width="76.6553" height="10.453" rx="1.0721" fill="white" />
            <g clip-path="url(#clip16)">
              <rect x="25.9927" y="67.194" width="61.1098" height="1.56795" rx="0.783975" fill="#DDE3E9" />
              <rect x="25.9927" y="69.8073" width="41.0189" height="1.56795" rx="0.783975" fill="#DDE3E9" />
            </g>
            <path fill-rule="evenodd" clip-rule="evenodd"
              d="M92.0437 71.1608C93.0798 71.1608 93.9198 70.3208 93.9198 69.2846C93.9198 68.2484 93.0798 67.4084 92.0437 67.4084C91.0075 67.4084 90.1675 68.2484 90.1675 69.2846C90.1675 70.3208 91.0075 71.1608 92.0437 71.1608Z" fill="#DDE3E9" />
            <path fill-rule="evenodd" clip-rule="evenodd"
              d="M92.0433 70.0887C92.4874 70.0887 92.8474 69.7287 92.8474 69.2846C92.8474 68.8406 92.4874 68.4806 92.0433 68.4806C91.5993 68.4806 91.2393 68.8406 91.2393 69.2846C91.2393 69.7287 91.5993 70.0887 92.0433 70.0887Z" fill="#F2F2F2" />
          </g>
          <g clip-path="url(#clip17)">
            <rect x="23.5806" y="51.4609" width="76.6553" height="10.453" rx="1.0721" fill="white" />
            <g clip-path="url(#clip18)">
              <rect x="25.9927" y="54.5968" width="61.1098" height="1.56795" rx="0.783975" fill="#DDE3E9" />
              <rect x="25.9927" y="57.2101" width="41.0189" height="1.56795" rx="0.783975" fill="#DDE3E9" />
            </g>
            <path fill-rule="evenodd" clip-rule="evenodd"
              d="M92.0437 58.5636C93.0798 58.5636 93.9198 57.7236 93.9198 56.6874C93.9198 55.6512 93.0798 54.8112 92.0437 54.8112C91.0075 54.8112 90.1675 55.6512 90.1675 56.6874C90.1675 57.7236 91.0075 58.5636 92.0437 58.5636Z" fill="#DDE3E9" />
            <path fill-rule="evenodd" clip-rule="evenodd"
              d="M92.0433 57.4915C92.4874 57.4915 92.8474 57.1315 92.8474 56.6874C92.8474 56.2433 92.4874 55.8833 92.0433 55.8833C91.5993 55.8833 91.2393 56.2433 91.2393 56.6874C91.2393 57.1315 91.5993 57.4915 92.0433 57.4915Z" fill="#F2F2F2" />
          </g>
        </g>
      </g>
    </g>
    <path fill-rule="evenodd" clip-rule="evenodd"
      d="M33.5354 48.8635C35.1944 49.5678 36.76 49.8008 37.4401 49.5203C39.1453 48.817 38.4011 42.3417 36.6747 39.9903C34.9484 37.6389 27.7555 37.5191 28.1091 42.609C28.2318 44.3754 29.1878 45.8329 30.4551 46.9537L29.778 56.2977L35.4473 55.501L33.5354 48.8635Z"
      fill="#B28B67" />
    <path fill-rule="evenodd" clip-rule="evenodd"
      d="M34.0461 37.5344C33.2383 37.4078 32.1025 37.486 31.637 37.6065C31.8158 36.9259 31.8219 36.1947 31.6369 35.5096C31.457 34.8439 31.0723 34.3097 30.7064 33.7446C30.5378 33.4841 30.3522 33.2276 30.1035 33.0452C29.8501 32.8594 29.5479 32.7557 29.2425 32.7289C28.93 32.7014 28.6143 32.7517 28.3201 32.8578C28.1899 32.9048 28.0782 32.9828 27.9515 33.0353C27.8217 33.089 27.7445 33.0142 27.6349 32.9435C27.3707 32.773 27.0112 32.7211 26.7081 32.7271C26.368 32.7337 26.0281 32.8328 25.7246 32.9872C25.4291 33.1375 25.1553 33.3527 24.9663 33.6366C24.8822 33.763 24.8094 33.9037 24.7703 34.0531C24.7543 34.1145 24.7551 34.1494 24.7001 34.1787C24.6492 34.2059 24.5866 34.2153 24.5339 34.2418C24.024 34.4978 23.6243 34.9744 23.4496 35.5388C23.3476 35.8681 23.3552 36.4215 23.4597 37.0283C23.5642 37.6352 24.3397 39.1479 24.9375 39.6554C25.4711 40.1084 26.1964 40.3549 26.8712 40.4125C26.5068 40.968 26.3048 41.6265 26.1795 42.2849C26.0434 43.0001 25.9995 43.7295 26.0481 44.4596C26.0942 45.1533 26.1916 45.8801 26.4475 46.5293C26.6868 47.1365 27.0823 47.6066 27.6674 47.8578C27.9355 47.9729 28.217 48.0481 28.4987 48.1134C28.7764 48.1778 29.0544 48.2392 29.3384 48.2573C29.8757 48.2915 30.4748 48.1885 30.8188 47.7175C30.9428 47.5478 31.0758 47.3376 31.156 47.1403C31.1848 47.0693 31.2017 47.0231 31.1464 46.9655C31.0803 46.8964 30.9825 46.8502 30.9029 46.8C30.4493 46.5143 30.134 46.0921 29.9943 45.5573C29.8526 45.0147 29.9011 44.2818 30.4053 43.9654C31.0275 43.5749 31.8068 43.8133 32.4417 44.0483C32.5685 43.1304 32.9718 42.2633 33.7224 41.7449C34.5528 41.1715 35.5705 40.975 36.4346 40.4616C36.6597 40.3279 36.8874 40.1799 37.0349 39.9511C37.0965 39.8555 37.1673 39.7328 37.1808 39.6158C37.1986 39.4623 37.0853 39.3515 36.995 39.2464C36.5164 38.6891 34.8538 37.6611 34.0461 37.5344Z"
      fill="#184747" />
    <path fill-rule="evenodd" clip-rule="evenodd" d="M31.8081 75.0283L49.5334 104.573L62.8222 129.55H65.6845L43.4189 75.0283L31.8081 75.0283Z" fill="#997659" />
    <path fill-rule="evenodd" clip-rule="evenodd"
      d="M61.7912 128.156C61.5035 128.032 61.1627 128.159 61.0569 128.454C60.8861 128.93 60.6719 129.604 60.6719 129.991C60.6719 130.634 60.8869 131.869 60.8869 131.869C61.6354 131.869 74.3411 131.869 74.3411 131.869C74.3411 131.869 74.8655 130.14 73.7356 130.002C72.6057 129.864 71.8583 129.753 71.8583 129.753L65.6322 126.986C65.4944 126.925 65.3333 126.989 65.2757 127.129L64.8853 128.073C64.8853 128.073 63.8393 128.559 63.1853 128.559C62.8048 128.559 62.2166 128.34 61.7912 128.156Z"
      fill="#E4E4E4" />
    <path fill-rule="evenodd" clip-rule="evenodd"
      d="M59.1317 125.55L64.6516 123.885C64.6516 123.885 61.024 113.073 55.7592 100.089C50.4945 87.1045 44.451 75.0283 44.451 75.0283H28.8608C28.8608 75.0283 35.5799 90.3042 43.1071 102.789C50.6342 115.273 59.1317 125.55 59.1317 125.55Z"
      fill="#A26638" />
    <path fill-rule="evenodd" clip-rule="evenodd"
      d="M30.6433 75.0283C28.9704 85.4104 25.7438 98.6747 25.4393 99.084C25.2363 99.3569 17.9281 101.798 3.51465 106.409L4.13294 108.925C21.3209 106.453 30.3775 104.534 31.3027 103.17C32.6905 101.124 39.6202 84.9606 42.3041 75.0283H30.6433Z"
      fill="#B28B67" />
    <path fill-rule="evenodd" clip-rule="evenodd"
      d="M8.58105 104.233L9.67011 108.286C22.5257 109.41 30.4026 108.598 33.3008 105.85C36.199 103.101 39.5022 92.8271 43.2102 75.0283H28.344C25.9947 89.6031 24.6813 97.1965 24.4038 97.8083C24.1262 98.4202 18.852 100.562 8.58105 104.233Z"
      fill="#C9844F" />
    <path fill-rule="evenodd" clip-rule="evenodd"
      d="M4.58256 106.028C4.65547 105.722 4.47001 105.408 4.16008 105.355C3.66055 105.27 2.9584 105.177 2.5765 105.244C1.94107 105.356 0.75931 105.781 0.75931 105.781C0.88929 106.516 3.09562 118.991 3.09562 118.991C3.09562 118.991 4.89413 119.206 4.83407 118.073C4.774 116.939 4.75393 116.186 4.75393 116.186L6.40583 109.594C6.44258 109.448 6.35075 109.3 6.20299 109.267L5.20324 109.048C5.20324 109.048 4.54098 108.105 4.42742 107.463C4.36151 107.091 4.47538 106.477 4.58256 106.028Z"
      fill="#E4E4E4" />
    <path fill-rule="evenodd" clip-rule="evenodd"
      d="M48.5785 54.0614L41.0085 59.6909L44.4917 62.5054L49.6851 56.2296C52.7024 54.9262 54.049 54.0936 53.7249 53.7319C53.4517 53.427 53.0889 53.4899 52.7548 53.5478C52.4945 53.5929 52.2516 53.6351 52.0819 53.4979C51.6943 53.1848 52.16 51.8339 52.6568 50.5707C53.1536 49.3075 52.4608 49.5088 52.0801 49.7339C50.8823 50.813 49.7151 52.2555 48.5785 54.0614ZM57.705 59.185L54.3807 61.6637L55.0922 65.2383C55.0922 65.2383 57.1889 63.2319 59.1173 62.392C61.5761 61.3211 62.5351 60.6324 63.5622 58.8683C64.1118 57.9244 64.4395 56.1361 63.7245 55.6692C63.4502 55.4901 62.6109 56.1222 61.7546 56.7672C61.1019 57.2588 60.4394 57.7578 60.0095 57.9109C59.4308 58.117 59.3923 57.3371 59.3616 56.7139C59.3395 56.2667 59.3214 55.9002 59.1106 56.0366C58.0589 56.2027 57.705 59.185 57.705 59.185Z"
      fill="#997659" />
    <path fill-rule="evenodd" clip-rule="evenodd" d="M36.8749 59.2548C39.7425 58.8209 43.4872 57.6779 47.21 54.5176L49.3162 57.8601C46.8896 61.045 43.2484 63.8934 39.7693 64.2834C37.0277 64.5907 35.1691 61.4936 36.8749 59.2548Z" fill="#458E94" />
    <path fill-rule="evenodd" clip-rule="evenodd"
      d="M35.1406 50.2607C35.1406 50.2606 35.1406 50.2606 35.1406 50.2606L29.4446 51.0611C29.4446 51.0612 29.4446 51.0612 29.4446 51.0612L29.2389 51.0901C28.5201 51.1911 24.9473 61.2138 25.7952 67.2799C26.0863 69.363 25.6069 71.2629 25.1022 73.2632C24.2647 76.5821 23.3575 80.1774 25.7847 85.3439C27.2303 84.8432 29.7849 84.8167 32.565 84.7879C37.7681 84.7339 43.7612 84.6718 44.7534 81.4772C45.4939 79.093 45.4639 76.6018 44.9643 74.0494C49.2982 73.344 54.3737 71.1729 60.0794 67.1016C59.9512 64.7279 56.507 59.5957 56.507 59.5957C56.507 59.5957 46.4581 64.8342 41.543 64.4262C41.1262 63.5115 40.6973 62.5963 40.2691 61.6825C38.4356 57.7693 36.6138 53.8812 35.7932 50.169L35.1406 50.2607Z"
      fill="#51B0B7" />
    <path fill-rule="evenodd" clip-rule="evenodd"
      d="M103.563 48.8007C102.143 49.91 100.692 50.5399 99.9626 50.445C98.1335 50.2071 97.1763 43.7597 98.2353 41.0416C99.2942 38.3235 106.211 36.3462 107.187 41.3542C107.526 43.0926 106.979 44.7481 106.045 46.1589L109.117 55.0085L103.434 55.7062L103.563 48.8007Z"
      fill="#B28B67" />
    <path fill-rule="evenodd" clip-rule="evenodd"
      d="M101.113 37.7054C101.847 37.491 103.853 37.1592 104.225 37.1136C104.463 37.0844 104.727 37.107 104.841 36.8721C104.934 36.6798 104.855 36.3837 104.864 36.1727C104.874 35.9277 104.902 35.6836 104.93 35.4401C105.011 34.7472 105.179 34.0767 105.451 33.4333C105.961 32.2261 106.802 31.2262 107.938 30.565C109.193 29.8349 110.675 29.521 112.113 29.4612C113.653 29.3972 115.094 29.7295 116.591 30.0248C118.018 30.3063 119.476 30.307 120.883 29.9112C122.301 29.5125 123.297 28.5976 124.425 27.7068C125.579 26.7948 126.944 26.1235 128.434 26.0564C129.824 25.9939 131.162 26.4049 132.394 27.0223C133.546 27.6 134.53 28.3444 135.173 29.4832C135.866 30.7081 136.039 32.1247 135.301 33.373C134.232 35.1823 131.922 35.8999 129.951 36.0987C128.811 36.2138 127.669 36.144 126.55 35.8994C125.057 35.5732 123.716 34.8743 122.292 34.3485C121.624 34.1017 120.941 33.9155 120.237 33.8074C119.553 33.7025 118.892 33.6971 118.343 34.1685C117.762 34.6672 117.245 35.1503 116.554 35.5028C115.89 35.8409 115.172 36.0726 114.431 36.1578C112.99 36.3234 111.516 36.0505 110.081 35.9226C108.911 35.8184 107.661 35.7247 106.527 36.1022C106.054 36.2598 105.37 36.5491 105.257 37.0732C108.271 37.244 109.876 40.7376 109.372 43.5087C109.1 45.0044 106.61 47.0196 105.468 46.391C104.745 45.9928 105.071 45.3134 105.281 44.8655C105.683 44.0079 105.729 42.964 104.736 42.5231C103.879 42.143 103.18 43.3814 103.164 43.3821C102.942 43.3918 100.916 42.5561 99.4195 41.1574C98.141 41.3917 97.8416 40.569 98.0641 39.8389C98.2866 39.1088 100.099 38.0018 101.113 37.7054Z"
      fill="#184747" />
    <path fill-rule="evenodd" clip-rule="evenodd"
      d="M115.831 75.0283C115.401 80.8811 87.6918 98.1124 87.5301 98.5959C87.4224 98.9182 96.1549 118.973 96.1549 118.973L93.7327 119.912C93.7327 119.912 80.3385 98.6719 81.0265 96.4088C82.0114 93.1686 102.526 75.0905 102.526 75.0905L115.831 75.0283Z"
      fill="#B28B67" />
    <path fill-rule="evenodd" clip-rule="evenodd"
      d="M95.5174 115.954L91.5628 117.389C83.224 108.009 79.9553 100.269 80.5513 96.3254C81.1473 92.3819 101.976 75.0426 101.976 75.0426L116.114 75.0426C115.632 88.5968 89.9492 98.6475 89.6057 99.2251C89.2622 99.8027 92.6428 105.46 95.5174 115.954Z"
      fill="#0C4347" />
    <path fill-rule="evenodd" clip-rule="evenodd"
      d="M96.2875 118.532C96.5154 118.317 96.8796 118.32 97.0803 118.561C97.4039 118.95 97.8364 119.51 97.9691 119.874C98.1898 120.478 98.4112 121.711 98.4112 121.711C97.7078 121.967 85.7683 126.299 85.7683 126.299C85.7683 126.299 84.6825 124.854 85.697 124.339C86.7115 123.824 87.3757 123.465 87.3757 123.465L92.2769 118.742C92.3854 118.637 92.5591 118.642 92.661 118.754L93.3517 119.508C93.3517 119.508 94.5015 119.608 95.116 119.385C95.4735 119.256 95.9508 118.849 96.2875 118.532Z"
      fill="#E4E4E4" />
    <path fill-rule="evenodd" clip-rule="evenodd" d="M112.645 75.0283L124.989 104.573L137.121 129.55H134.258L102.943 75.0283H112.645Z" fill="#997659" />
    <path fill-rule="evenodd" clip-rule="evenodd"
      d="M136.573 128.156C136.861 128.032 137.202 128.159 137.307 128.454C137.478 128.93 137.692 129.604 137.692 129.991C137.692 130.634 137.477 131.869 137.477 131.869C136.729 131.869 124.023 131.869 124.023 131.869C124.023 131.869 123.499 130.14 124.629 130.002C125.759 129.864 126.506 129.753 126.506 129.753L132.732 126.986C132.87 126.925 133.031 126.989 133.089 127.129L133.479 128.073C133.479 128.073 134.525 128.559 135.179 128.559C135.559 128.559 136.148 128.34 136.573 128.156Z"
      fill="#E4E4E4" />
    <path fill-rule="evenodd" clip-rule="evenodd" d="M136.025 124.361L129.665 125.55C124.747 118.342 104.167 88.7869 101.911 75.0283H116.069C123.605 84.9744 131.337 117.034 136.025 124.361Z" fill="#18676C" />
    <path fill-rule="evenodd" clip-rule="evenodd"
      d="M81.8 67.8761L90.8403 70.579L88.5305 74.4142L81.5023 70.2917C78.2208 70.0981 76.6705 69.7759 76.8512 69.3253C77.0036 68.9454 77.366 68.8805 77.6998 68.8208C77.9598 68.7742 78.2025 68.7308 78.315 68.5439C78.572 68.1172 77.6721 67.0069 76.7729 65.9897C75.8736 64.9725 76.5935 64.9248 77.0284 65.0063C78.5233 65.611 80.1138 66.5676 81.8 67.8761ZM120.918 68.9104L125.651 67.355C130.004 75.5974 132.547 80.0948 133.282 80.847C133.821 81.3986 136.876 82.6148 138.916 83.2141C139.735 83.4546 139.648 84.1303 139.446 84.3679C138.169 85.8667 136.775 85.5675 135.257 85.2418C134.818 85.1475 134.368 85.051 133.908 84.9953C132.717 84.851 132.437 85.4869 132.174 86.0879C131.94 86.62 131.719 87.1247 130.887 87.0363C130.904 86.8735 130.928 86.6906 130.953 86.4933C131.116 85.2176 131.357 83.3362 130.537 82.361C130.117 81.8605 126.91 77.377 120.918 68.9104Z"
      fill="#B28B67" />
    <path fill-rule="evenodd" clip-rule="evenodd"
      d="M105.391 51.4721L103.301 51.3734C99.3711 56.2336 98.8236 66.8183 96.0202 68.5546C93.3697 70.1963 89.2326 69.4306 84.2902 68.3176L83.2369 71.7253C88.1082 75.837 97.7537 78.6317 101.194 75.9378C106.693 71.6308 106.495 58.6835 105.391 51.4721Z"
      fill="#A26638" />
    <path fill-rule="evenodd" clip-rule="evenodd"
      d="M117.466 76.0277C117.466 76.0277 105.152 77.5396 99.3505 78.2519C98.5228 78.3536 98.5324 77.1427 98.5783 76.5267C99.1071 69.4171 103.58 61.2741 102.367 51.3951L107.492 49.9366C112.664 56.3361 115.207 64.685 117.466 76.0277Z"
      fill="#DDE3E9" />
    <path fill-rule="evenodd" clip-rule="evenodd"
      d="M106.885 50.011L107.828 49.8952C120.433 55.6568 128.886 65.9492 133.189 80.7723L129.483 81.9801C126.609 79.3674 122.918 74.9672 118.41 68.7795C120.034 72.6409 121.365 76.6424 122.099 80.4906L105.793 82.4928C101.659 74.9267 105.76 50.1493 105.76 50.1493L106.885 50.011Z"
      fill="#C9844F" />
    <path fill-rule="evenodd" clip-rule="evenodd" d="M63.2923 50.5788C63.2921 50.5802 63.2919 50.5817 63.2915 50.5834C63.292 50.5819 63.2917 50.5765 63.2923 50.5788Z" fill="#C5CFD6" />
    <path fill-rule="evenodd" clip-rule="evenodd" d="M63.2916 50.5811C63.2917 50.5814 63.2915 50.5819 63.2917 50.5825C63.2913 50.5812 63.2927 50.5767 63.2916 50.5811Z" fill="#C5CFD6" />
    <path fill-rule="evenodd" clip-rule="evenodd" d="M63.2951 50.5568C63.2946 50.5625 63.2935 50.568 63.2927 50.5737C63.2931 50.5709 63.2936 50.5685 63.294 50.5657C63.2838 50.64 63.29 50.5918 63.2951 50.5568Z" fill="#C5CFD6" />
    <path fill-rule="evenodd" clip-rule="evenodd" d="M63.2932 50.574C63.2928 50.5766 63.2924 50.5794 63.2919 50.582C63.288 50.5985 63.2932 50.574 63.2932 50.574Z" fill="#C5CFD6" />
    <path fill-rule="evenodd" clip-rule="evenodd" d="M63.2918 50.5811C63.2917 50.5809 63.2917 50.5809 63.2919 50.5805C63.2917 50.5809 63.2917 50.5809 63.2918 50.5811Z" fill="#C5CFD6" />
    <path fill-rule="evenodd" clip-rule="evenodd" d="M63.291 50.5833C63.2902 50.5868 63.2953 50.5695 63.291 50.5833V50.5833Z" fill="#C5CFD6" />
    <path fill-rule="evenodd" clip-rule="evenodd" d="M63.2917 50.5812L63.292 50.5805C63.2918 50.5808 63.2919 50.5811 63.2917 50.5812Z" fill="#C5CFD6" />
    <rect x="46.7354" y="39.8489" width="26.8026" height="17.6897" rx="1.0721" transform="rotate(-14 46.7354 39.8489)" fill="#3CA7AE" />
    <path fill-rule="evenodd" clip-rule="evenodd" d="M57.8143 42.4108L53.3615 56.5038L68.3622 52.7637L57.8143 42.4108Z" fill="black" fill-opacity="0.2" />
    <path fill-rule="evenodd" clip-rule="evenodd" d="M66.3636 43.7567L61.9641 54.3589L75.2256 51.0524L66.3636 43.7567Z" fill="black" fill-opacity="0.2" />
    <path fill-rule="evenodd" clip-rule="evenodd"
      d="M69.2314 43.1689C70.5959 42.8287 71.4262 41.4468 71.086 40.0823C70.7458 38.7179 69.3639 37.8875 67.9994 38.2277C66.6349 38.5679 65.8046 39.9498 66.1448 41.3143C66.485 42.6788 67.8669 43.5091 69.2314 43.1689Z" fill="white" />
  </g>
  <defs>
    <clipPath id="clip0">
      <rect width="142.858" height="132.137" fill="white" transform="translate(0.79834)" />
    </clipPath>
    <clipPath id="clip1">
      <rect width="106.138" height="92.7369" fill="white" transform="translate(19.292)" />
    </clipPath>
    <clipPath id="clip2">
      <rect width="97.5613" height="75.8513" fill="white" transform="translate(23.5806 11.5251)" />
    </clipPath>
    <clipPath id="clip3">
      <rect width="18.7618" height="51.997" fill="white" transform="translate(102.38 35.3794)" />
    </clipPath>
    <clipPath id="clip4">
      <rect width="9.11287" height="42.348" fill="white" transform="translate(107.205 40.2038)" />
    </clipPath>
    <clipPath id="clip5">
      <rect width="13.4013" height="13.9373" fill="white" transform="translate(105.06 15.5455)" />
    </clipPath>
    <clipPath id="clip6">
      <rect width="76.6553" height="75.5832" fill="white" transform="translate(23.5806 11.5251)" />
    </clipPath>
    <clipPath id="clip7">
      <rect width="76.6553" height="12.5972" fill="white" transform="translate(23.5806 11.5251)" />
    </clipPath>
    <clipPath id="clip8">
      <rect width="61.1098" height="5.09249" fill="white" transform="translate(25.9927 15.3043)" />
    </clipPath>
    <clipPath id="clip9">
      <rect width="76.6553" height="10.453" fill="white" transform="translate(23.5806 26.2665)" />
    </clipPath>
    <clipPath id="clip10">
      <rect width="61.1098" height="4.28841" fill="white" transform="translate(25.9927 29.4024)" />
    </clipPath>
    <clipPath id="clip11">
      <rect width="76.6553" height="10.453" fill="white" transform="translate(23.5806 38.8637)" />
    </clipPath>
    <clipPath id="clip12">
      <rect width="61.1098" height="4.28841" fill="white" transform="translate(25.9927 41.9996)" />
    </clipPath>
    <clipPath id="clip13">
      <rect width="76.6553" height="10.453" fill="white" transform="translate(23.5806 76.6553)" />
    </clipPath>
    <clipPath id="clip14">
      <rect width="61.1098" height="4.28841" fill="white" transform="translate(25.9927 79.7912)" />
    </clipPath>
    <clipPath id="clip15">
      <rect width="76.6553" height="10.453" fill="white" transform="translate(23.5806 64.0581)" />
    </clipPath>
    <clipPath id="clip16">
      <rect width="61.1098" height="4.28841" fill="white" transform="translate(25.9927 67.194)" />
    </clipPath>
    <clipPath id="clip17">
      <rect width="76.6553" height="10.453" fill="white" transform="translate(23.5806 51.4609)" />
    </clipPath>
    <clipPath id="clip18">
      <rect width="61.1098" height="4.28841" fill="white" transform="translate(25.9927 54.5968)" />
    </clipPath>
  </defs>
</svg>